<svg width="17" height="17" viewBox="0 0 17 17" fill="none" xmlns="http://www.w3.org/2000/svg">
<g clip-path="url(#clip0_39_3255)">
<path d="M0.829989 17C0.665793 17 0.505276 16.9514 0.368741 16.8601C0.232207 16.7689 0.12579 16.6393 0.0629508 16.4876C0.000111437 16.3359 -0.0163271 16.169 0.0157144 16.0079C0.047756 15.8469 0.126838 15.699 0.242958 15.5829L15.5828 0.243034C15.7385 0.0873439 15.9497 -0.00012207 16.1698 -0.00012207C16.39 -0.00012207 16.6012 0.0873439 16.7569 0.243034C16.9126 0.398725 17 0.609886 17 0.830065C17 1.05024 16.9126 1.26141 16.7569 1.4171L1.41702 16.7569C1.34 16.8341 1.24849 16.8953 1.14775 16.937C1.04701 16.9787 0.939023 17.0001 0.829989 17Z" fill="#C04E4E"/>
<path d="M16.17 17C16.061 17.0001 15.953 16.9787 15.8523 16.937C15.7515 16.8953 15.66 16.8341 15.583 16.7569L0.243156 1.4171C0.087466 1.26141 0 1.05024 0 0.830065C0 0.609886 0.087466 0.398725 0.243156 0.243034C0.398847 0.0873439 0.610008 -0.00012207 0.830188 -0.00012207C1.05037 -0.00012207 1.26153 0.0873439 1.41722 0.243034L16.7571 15.5829C16.8732 15.699 16.9523 15.8469 16.9843 16.0079C17.0163 16.169 16.9999 16.3359 16.9371 16.4876C16.8742 16.6393 16.7678 16.7689 16.6313 16.8601C16.4947 16.9514 16.3342 17 16.17 17Z" fill="#C04E4E"/>
</g>
<defs>
<clipPath id="clip0_39_3255">
<rect width="17" height="17" fill="white"/>
</clipPath>
</defs>
</svg>
