<?xml version="1.0" encoding="utf-8"?><svg width="362" height="36" fill="none" xmlns="http://www.w3.org/2000/svg" viewBox="0 0 362 36"><path d="M182 1V.5 1zM0 33.62l3.697-4.435 1.992 5.419L0 33.62zm361-.002l-.135.482h-.001l-.004-.002a10.857 10.857 0 00-.075-.021l-.237-.066-.934-.259c-.822-.227-2.035-.56-3.603-.985l.261-.966a769.53 769.53 0 014.545 1.247l.238.066a5.362 5.362 0 01.075.022h.005l.001.001-.136.481zm-14.789-3.458c-2.91-.76-6.193-1.609-9.796-2.523l.246-.969c3.605.915 6.891 1.763 9.803 2.525l-.253.967zm-19.643-4.983c-3.122-.768-6.401-1.564-9.813-2.379l.232-.972c3.415.814 6.696 1.611 9.82 2.38l-.239.97zm-19.683-4.696c-3.211-.742-6.509-1.491-9.877-2.242l.217-.976c3.371.751 6.671 1.501 9.885 2.243l-.225.975zm-19.782-4.407c-3.26-.698-6.566-1.392-9.907-2.076l.201-.98c3.343.685 6.653 1.38 9.915 2.079l-.209.978zm-19.845-4.062a932.575 932.575 0 00-9.952-1.883l.18-.983c3.333.61 6.658 1.24 9.963 1.884l-.191.982zm-19.926-3.65c-3.34-.57-6.674-1.117-9.99-1.636l.154-.988c3.321.52 6.66 1.067 10.005 1.638l-.169.986zm-20.011-3.12c-3.386-.473-6.738-.91-10.044-1.305l.119-.993c3.312.397 6.671.834 10.063 1.307l-.138.99zM207.228 2.85c-3.446-.33-6.82-.605-10.106-.819l.066-.998c3.296.215 6.68.491 10.135.821l-.095.996zm-20.196-1.285c-1.712-.044-3.39-.066-5.032-.066v-1c1.651 0 3.338.022 5.058.066l-.026 1zM182 1.5c-1.726 0-3.448.01-5.165.03l-.012-1C178.544.51 180.27.5 182 .5v1zm-15.471.266a476.89 476.89 0 00-10.296.463l-.056-.999c3.414-.19 6.855-.345 10.318-.463l.034.999zM145.951 2.91c-3.459.265-6.888.564-10.282.892l-.096-.995c3.4-.33 6.835-.629 10.302-.894l.076.997zM125.41 4.899c-3.453.402-6.865.834-10.23 1.291l-.135-.99c3.372-.459 6.789-.891 10.249-1.295l.116.994zM104.987 7.67a573.81 573.81 0 00-10.186 1.668l-.17-.985a576.363 576.363 0 0110.203-1.671l.153.988zm-20.34 3.518c-3.44.657-6.805 1.332-10.09 2.02l-.204-.98c3.29-.688 6.66-1.364 10.106-2.023l.188.983zm-20.191 4.223a603.001 603.001 0 00-10.007 2.362l-.238-.97a603.785 603.785 0 0110.023-2.368l.222.976zm-20.032 4.911c-3.494.921-6.817 1.831-9.955 2.718l-.272-.962c3.144-.889 6.472-1.8 9.972-2.723l.255.967zM24.57 25.938a502.49 502.49 0 00-9.797 3.073l-.31-.95a503.16 503.16 0 019.817-3.08l.29.957zm-19.61 6.4c-.196.068-.385.136-.568.201l-.336-.942.57-.202.333.942zM182 1V0v1zM0 33.62l7.404-8.86 3.972 10.842L0 33.62zm361-.002l-.27.963h-.001-.001l-.003-.001a.415.415 0 00-.015-.005l-.059-.016-.237-.066-.933-.26c-.821-.226-2.034-.56-3.601-.984l.523-1.93a781.751 781.751 0 014.847 1.33l.016.005.004.001h.001l-.271.963zm-14.916-2.974c-2.908-.76-6.191-1.608-9.792-2.522l.492-1.939c3.606.915 6.893 1.764 9.806 2.526l-.506 1.935zm-19.636-4.982c-3.12-.768-6.398-1.563-9.81-2.377l.465-1.946c3.416.815 6.698 1.612 9.823 2.381l-.478 1.942zm-19.676-4.694c-3.21-.741-6.506-1.49-9.873-2.24l.435-1.953c3.372.752 6.674 1.502 9.888 2.244l-.45 1.949zm-19.774-4.405c-3.258-.697-6.563-1.391-9.902-2.075l.401-1.96c3.345.686 6.656 1.38 9.92 2.08l-.419 1.955zm-19.835-4.06a936.384 936.384 0 00-9.947-1.882l.36-1.967c3.335.611 6.662 1.242 9.969 1.885l-.382 1.964zm-19.915-3.648a723.15 723.15 0 00-9.983-1.635l.308-1.976c3.324.52 6.665 1.068 10.012 1.64l-.337 1.97zm-19.996-3.118a519.157 519.157 0 00-10.034-1.304l.237-1.985c3.316.396 6.678.834 10.073 1.308l-.276 1.981zM207.18 3.349a335.676 335.676 0 00-10.09-.818l.13-1.996c3.302.216 6.691.492 10.15.823l-.19 1.99zm-20.16-1.284A198.734 198.734 0 00182 2V0c1.655 0 3.347.022 5.07.066l-.05 2zM182 2c-1.724 0-3.444.01-5.159.03l-.024-2C178.54.01 180.268 0 182 0v2zm-15.454.266c-3.452.117-6.882.272-10.285.462l-.112-1.997c3.418-.19 6.862-.346 10.329-.464l.068 1.999zm-20.557 1.142c-3.456.265-6.881.564-10.271.892l-.193-1.99c3.403-.33 6.842-.63 10.312-.896l.152 1.994zm-20.521 1.987c-3.45.403-6.858.834-10.221 1.29l-.269-1.981c3.375-.458 6.795-.891 10.258-1.295l.232 1.986zm-20.405 2.77c-3.449.533-6.843 1.09-10.176 1.667l-.341-1.97c3.345-.58 6.75-1.139 10.211-1.674l.306 1.977zM84.741 11.68c-3.437.657-6.8 1.331-10.081 2.018l-.41-1.958a597.7 597.7 0 0110.115-2.025l.376 1.965zM64.567 15.9a603.234 603.234 0 00-10 2.36l-.475-1.943a604.796 604.796 0 0110.032-2.368l.443 1.95zm-20.015 4.907c-3.492.92-6.812 1.83-9.947 2.715l-.543-1.924a584.308 584.308 0 019.98-2.725l.51 1.934zm-19.837 5.608a501.433 501.433 0 00-9.787 3.07l-.619-1.901a504.005 504.005 0 019.826-3.083l.58 1.914z" fill="#fff"/></svg>