<?xml version="1.0" encoding="utf-8"?><svg width="267" height="59" fill="none" xmlns="http://www.w3.org/2000/svg" viewBox="0 0 267 59"><g clip-path="url(#anclip0_105_1111)"><path d="M36.406 25.006l4.848-2.896.097-.058c.097-.057.194-.12.29-.17l.019-.014.878-.523-1.484-.873-.523-.3c-2.925-1.738-5.868-3.444-8.803-5.162-4.188 2.434-8.37 4.879-12.57 7.288-.112 3.936.058 7.872-.052 11.81.107 5.864-.033 11.732.056 17.595 2.203 1.27 4.387 2.573 6.579 3.862.039-9.727-.01-19.458.024-29.187 1.997-1.108 3.901-2.388 5.929-3.43 1.503.592 2.822 1.584 4.252 2.334l.46-.276z" fill="#A78B73"/><path d="M44.375 25.413c-2.223 1.341-4.473 2.635-6.699 3.968 0 1.327.006 2.64 0 3.96a324.276 324.276 0 00-5.775 3.48c.006 2.594 0 5.19.006 7.784 4.17-2.414 8.301-4.907 12.473-7.31.02-3.96.018-7.921-.005-11.882z" fill="#A78B73"/><path d="M62.34 18.02l-.508-.303c-3.463-2.136-6.997-4.147-10.496-6.23-.01-1.43-.014-2.86-.014-4.29 0-.427 0-.854.005-1.283.429-.491.855-.984 1.278-1.477-3.1 0-6.2-.073-9.296.04.388.422.794.828 1.205 1.232V7.373C40.174 5.066 35.999 2.41 31.7 0a7732.158 7732.158 0 01-30 17.65l-.661.387-1.036.604H2c1.504.042 3.009-.017 4.512 0-.011 8.502.015 16.999-.011 25.497 2.193 1.338 4.423 2.607 6.64 3.905.014-9.765.014-19.528 0-29.29 6.191-3.644 12.403-7.254 18.581-10.922 6.151 3.606 12.3 7.218 18.447 10.838-.008 7.266-.008 14.53 0 21.794-6.06 3.59-12.12 7.178-18.176 10.762 0 2.591-.01 5.182.005 7.775a36014.81 36014.81 0 0124.984-14.643c.004-8.595.004-17.19 0-25.787h6.276l-.918-.55zM90.517 19.72a7.032 7.032 0 01-2.005 4.926 6.786 6.786 0 01-4.838 2.04h-8.117l2.228-5.182h5.889a1.723 1.723 0 001.267-.506 1.786 1.786 0 00.53-1.277 1.812 1.812 0 00-.53-1.276 1.749 1.749 0 00-1.267-.506H74.92v17.502h-5.1V12.755h13.854c1.814.001 3.555.735 4.838 2.041a7.032 7.032 0 012.005 4.925zM110.889 35.435H91.791v-22.68h19.098v5.19H96.883v3.565h10.823v5.182H96.883v3.565h14.006v5.178zM117.254 35.435h-5.099v-22.68h5.099v22.68zm15.596 0h-5.092v-8.749h-9.867l2.228-5.182h7.64v-8.749h5.092l-.001 22.68zM156.406 24.095c0 3.132-1.088 5.805-3.263 8.02-2.174 2.214-4.8 3.32-7.877 3.32s-5.703-1.107-7.879-3.32c-2.175-2.214-3.263-4.887-3.262-8.02 0-3.13 1.087-5.804 3.262-8.018 2.175-2.214 4.801-3.322 7.879-3.322 3.076 0 5.702 1.108 7.877 3.322 2.176 2.214 3.263 4.887 3.263 8.018zm-5.092 0c0-1.013-.245-2.01-.714-2.904a6.114 6.114 0 00-1.975-2.217 5.952 5.952 0 00-5.677-.567 6.063 6.063 0 00-2.361 1.784 6.21 6.21 0 00-1.254 2.707 6.265 6.265 0 00.148 2.99c.29.968.811 1.85 1.516 2.564a6.01 6.01 0 003.096 1.688 5.941 5.941 0 003.495-.352 6.071 6.071 0 002.713-2.27 6.236 6.236 0 001.013-3.423zM178.37 28.474a7.035 7.035 0 01-2.007 4.924 6.786 6.786 0 01-4.838 2.041h-13.846V12.756h13.846c1.815.001 3.555.736 4.838 2.041a7.035 7.035 0 012.007 4.925c0 1.383-.616 2.841-1.847 4.374 1.23 1.535 1.846 2.994 1.847 4.379zm-5.1 0a1.779 1.779 0 00-1.079-1.65 1.714 1.714 0 00-.672-.133h-8.116l2.233-5.187h5.889a1.723 1.723 0 001.268-.506 1.793 1.793 0 00.529-1.277 1.808 1.808 0 00-.529-1.276 1.723 1.723 0 00-1.268-.505h-8.753v12.31h8.753a1.716 1.716 0 001.24-.516 1.775 1.775 0 00.511-1.26h-.006zM191.403 12.755h-4.125l-.496 1.175a964.536 964.536 0 01-4.309 9.961 1087.35 1087.35 0 01-5.073 11.447v.097h5.715l6.222-14.312 3.971 9.128h-7.313l2.228 5.19h13.044l-9.864-22.686zM202.516 35.435v-22.68h5.099v17.502h8.912V12.755h5.08v17.502h1.465v8.294h-5.093v-3.116h-15.463zM224.348 12.755h5.092v12.863l10.504-12.863h5.093v22.68h-5.093V22.572L229.44 35.435h-5.092v-22.68zM254.3 26.686h-1.149a6.788 6.788 0 01-4.839-2.04 7.034 7.034 0 01-2.005-4.925 7.034 7.034 0 012.005-4.925 6.788 6.788 0 014.839-2.04h13.845v22.679h-5.093V17.933h-8.752a1.722 1.722 0 00-1.268.506 1.78 1.78 0 00-.529 1.276 1.807 1.807 0 00.529 1.277 1.743 1.743 0 001.268.506h5.887l2.228 5.182-7.892 8.749h-7.067l7.993-8.743z" fill="#fff"/><path d="M73.78 49.732c-1.137 0-2.08-.383-2.83-1.148a3.877 3.877 0 01-.849-1.303 3.93 3.93 0 01-.273-1.54c0-1.126.374-2.073 1.123-2.84.749-.769 1.692-1.152 2.83-1.15a3.772 3.772 0 011.896.495 3.569 3.569 0 011.356 1.34l-1.08.638a2.26 2.26 0 00-.88-.906 2.528 2.528 0 00-1.292-.336c-.806 0-1.46.26-1.96.781-.5.52-.75 1.18-.75 1.978 0 .8.25 1.46.75 1.98s1.154.78 1.96.78c.454.006.901-.11 1.296-.336.374-.207.679-.523.876-.906l1.08.626a3.53 3.53 0 01-1.346 1.35 3.76 3.76 0 01-1.907.497zM85.726 41.894V43.1h-2.134v6.487h-1.236v-6.484h-2.134v-1.207l5.504-.002zM92.131 41.893a2.436 2.436 0 011.787.724c.461.482.719 1.128.719 1.8 0 .673-.258 1.32-.719 1.801-.233.24-.512.428-.82.554a2.387 2.387 0 01-.967.178h-1.542v2.638h-1.245v-7.695h2.787zm0 3.87a1.181 1.181 0 00.907-.379 1.475 1.475 0 000-1.924 1.204 1.204 0 00-.907-.379h-1.542v2.682h1.542zM104.74 48.571a3.909 3.909 0 01-5.006.536 4.027 4.027 0 01-1.604-2.177 4.1 4.1 0 01.12-2.719c.348-.865.98-1.58 1.788-2.022a3.903 3.903 0 012.644-.406c.901.18 1.713.674 2.296 1.396a4.08 4.08 0 01.902 2.562 3.914 3.914 0 01-.282 1.535 3.853 3.853 0 01-.858 1.295zm-4.688-.857a2.715 2.715 0 001.907.786c.711 0 1.395-.282 1.906-.786.495-.533.772-1.239.772-1.973s-.277-1.44-.772-1.973a2.715 2.715 0 00-1.906-.786c-.712 0-1.396.282-1.907.786a2.9 2.9 0 00-.772 1.973 2.9 2.9 0 00.772 1.973zM114.249 49.59v-5.222l-3.557 5.221h-.973v-7.695h1.243v5.222l3.563-5.222h.973v7.695h-1.249zM124.618 41.894V43.1h-2.127v6.487h-1.243v-6.484h-2.135v-1.207l5.505-.002zM129.478 48.38h3.348v1.207h-4.59v-7.693h4.536V43.1h-3.294v2.002h3.025V46.3h-3.025v2.08zM136.045 49.59v-1.165c.474.065.83-.053 1.067-.353s.356-.875.356-1.726v-4.452h5.066v7.695h-1.243v-6.486h-2.58v3.221a5.941 5.941 0 01-.212 1.705 2.207 2.207 0 01-.6 1.038 2 2 0 01-.83.462 2.91 2.91 0 01-1.024.06zM149.524 44.527c.331-.009.661.052.968.178.307.125.586.314.819.554.461.481.719 1.127.719 1.8 0 .672-.258 1.318-.719 1.8a2.397 2.397 0 01-1.787.724h-2.787v-7.69h1.242v2.634h1.545zm0 3.87a1.18 1.18 0 00.907-.38 1.47 1.47 0 00.356-.961 1.47 1.47 0 00-.356-.962 1.191 1.191 0 00-.907-.38h-1.541v2.688l1.541-.005zM160.292 41.894h1.242v7.695h-1.242v-3.331h-3.24v3.331h-1.243v-7.695h1.243v3.155h3.24v-3.155zM170.671 49.59l-.529-1.55h-3.219l-.529 1.55h-1.351l2.743-7.696h1.491l2.727 7.695h-1.333zm-3.337-2.738h2.398l-1.199-3.474-1.199 3.474zM180.738 41.894v7.695h-1.243v-2.803h-1.199l-1.825 2.803h-1.404l1.922-2.913a2.374 2.374 0 01-1.226-.874 2.335 2.335 0 01-.48-1.434c-.002-.326.06-.648.181-.949.121-.3.3-.574.526-.804a2.382 2.382 0 011.723-.72h3.025zm-3.025 3.76h1.778v-2.575h-1.778a1.091 1.091 0 00-.842.374 1.37 1.37 0 00-.346.912c0 .338.123.663.346.913a1.116 1.116 0 00.842.375zM196.052 49.59h-1.482l-2.981-3.662v3.661h-1.24v-7.695h1.243v3.452l2.873-3.452h1.479l-3.056 3.748 3.164 3.947zM205.886 48.571a3.91 3.91 0 01-5.007.536 4.03 4.03 0 01-1.604-2.177 4.106 4.106 0 01.12-2.719 4.011 4.011 0 011.789-2.022 3.903 3.903 0 012.644-.406 3.95 3.95 0 012.295 1.396c.584.722.902 1.627.902 2.562a3.894 3.894 0 01-1.139 2.83zm-4.688-.857a2.715 2.715 0 001.906.786c.712 0 1.396-.282 1.907-.786.496-.532.773-1.239.773-1.973s-.277-1.44-.773-1.973a2.715 2.715 0 00-1.907-.786c-.711 0-1.395.282-1.906.786a2.898 2.898 0 00-.772 1.973c0 .734.276 1.44.772 1.973zM218.096 41.894v7.695h-1.243v-5.486l-2.3 3.87h-.151l-2.3-3.88v5.496h-1.243v-7.695h1.34l2.278 3.847 2.29-3.847h1.329zM227.87 41.894v7.695h-1.242v-6.486h-3.083v6.486h-1.241v-7.695h5.566zM237.008 49.59l-.53-1.55h-3.219l-.528 1.55h-1.351l2.744-7.696h1.491l2.727 7.695h-1.334zm-3.338-2.738h2.398l-1.199-3.474-1.199 3.474zM246.339 41.894h1.238v7.695h-1.241v-3.331h-3.241v3.331h-1.242v-7.695h1.242v3.155h3.241l.003-3.155zM256.33 49.59v-5.222l-3.565 5.221h-.972v-7.695h1.239v5.222l3.558-5.222h.972v7.695h-1.232zM267 41.893v7.696h-1.242v-2.804h-1.198l-1.827 2.804h-1.4l1.923-2.914a2.373 2.373 0 01-1.226-.874 2.332 2.332 0 01-.474-1.434 2.486 2.486 0 01.707-1.753 2.382 2.382 0 011.723-.72H267zm-3.024 3.76h1.779v-2.575h-1.779a1.094 1.094 0 00-.843.374 1.375 1.375 0 000 1.826 1.11 1.11 0 00.843.375z" fill="#A78B73"/></g><defs><clipPath id="anclip0_105_1111"><path fill="#fff" d="M0 0h267v59H0z"/></clipPath></defs></svg>