<?xml version="1.0" encoding="utf-8"?><svg width="38" height="38" fill="none" xmlns="http://www.w3.org/2000/svg" viewBox="0 0 38 38"><path d="M19 .667C8.88.667.667 8.88.667 19S8.88 37.333 19 37.333 37.333 29.12 37.333 19 29.12.667 19 .667zm8.507 12.466c-.275 2.897-1.467 9.937-2.072 13.182-.257 1.375-.77 1.833-1.247 1.888-1.063.092-1.87-.697-2.896-1.375-1.614-1.063-2.53-1.723-4.089-2.75-1.815-1.191-.641-1.851.404-2.915.275-.275 4.968-4.547 5.06-4.931a.367.367 0 00-.092-.33c-.11-.092-.257-.055-.385-.037-.165.037-2.732 1.742-7.737 5.115-.733.495-1.393.752-1.98.733-.66-.018-1.906-.367-2.841-.678-1.155-.367-2.054-.569-1.98-1.21.036-.33.495-.66 1.356-1.008 5.354-2.329 8.91-3.869 10.689-4.602 5.096-2.127 6.141-2.493 6.838-2.493.147 0 .495.036.715.22a.729.729 0 01.257.495c-.019.11.018.44 0 .696z" fill="#fff"/></svg>