<?xml version="1.0" encoding="utf-8"?><svg width="44" height="44" fill="none" xmlns="http://www.w3.org/2000/svg" viewBox="0 0 44 44"><path d="M22.002 3.667c10.125 0 18.333 8.207 18.333 18.333 0 10.126-8.208 18.333-18.333 18.333a18.25 18.25 0 01-9.222-2.484l-9.104 2.484 2.478-9.108A18.247 18.247 0 013.668 22c0-10.126 8.208-18.333 18.334-18.333zm-6.248 9.716l-.367.015c-.237.014-.47.077-.682.183a2.37 2.37 0 00-.539.418c-.22.207-.345.387-.478.561a5.004 5.004 0 00-1.038 3.077c.004.898.238 1.773.605 2.59.75 1.654 1.984 3.405 3.612 5.027.392.39.777.783 1.191 1.148a17.322 17.322 0 007.04 3.75l1.042.16c.339.019.678-.007 1.019-.024a3.646 3.646 0 001.527-.423 8.83 8.83 0 00.702-.403s.08-.052.23-.165c.247-.184.4-.314.605-.528.152-.158.284-.343.385-.554.142-.299.285-.869.344-1.344.044-.363.031-.56.026-.684-.008-.196-.17-.4-.349-.486l-1.067-.478s-1.595-.695-2.57-1.139a.911.911 0 00-.323-.075.884.884 0 00-.692.233c-.01-.004-.133.101-1.458 1.707a.642.642 0 01-.675.238 2.644 2.644 0 01-.35-.12c-.227-.096-.306-.133-.462-.199a11.047 11.047 0 01-2.887-1.838c-.231-.202-.446-.422-.666-.635a11.55 11.55 0 01-1.87-2.325l-.108-.174a1.693 1.693 0 01-.187-.376c-.07-.269.112-.485.112-.485s.445-.488.652-.752a7.84 7.84 0 00.483-.684c.216-.348.284-.706.17-.983a152.58 152.58 0 00-1.591-3.741c-.108-.246-.43-.422-.72-.457a8.064 8.064 0 00-.298-.03 6.194 6.194 0 00-.739.008l.369-.014.002.001z" fill="#23272B"/></svg>