<?xml version="1.0" encoding="utf-8"?><svg width="25" height="25" fill="none" xmlns="http://www.w3.org/2000/svg" viewBox="0 0 25 25"><g clip-path="url(#beclip0_201_1034)" fill="#23272B"><path d="M25 3.672c0-.655-.534-1.19-1.19-1.19H5.946A3.01 3.01 0 003.001.064 3.008 3.008 0 000 3.072v17.33a3.002 3.002 0 002.998 2.993h20.809c.655 0 1.19-.534 1.19-1.19V3.672H25zM3.005 1.244c1.006 0 1.82.819 1.82 1.828v14.936a2.995 2.995 0 00-3.643 0V3.072a1.822 1.822 0 011.823-1.828zM1.179 20.39c0-1.006.82-1.821 1.822-1.821 1.006 0 1.821.818 1.821 1.821v.007a.59.59 0 101.18 0V3.662h17.8c.012 0 .012.004.012.01v18.53c0 .01-.004.01-.011.01H2.998a1.819 1.819 0 01-1.819-1.821z"/><path d="M7.695 16.651a.487.487 0 00-.486.486v.094h-.232a.487.487 0 000 .971h.232v.094c0 .267.219.485.486.485H8.91a.487.487 0 00.486-.485v-.094h5.235v.094c0 .267.219.485.486.485h1.214a.487.487 0 00.486-.485v-1.162a.487.487 0 00-.486-.486h-.114v-2.672h.114a.487.487 0 00.486-.485v-.083h3.008v.083c0 .267.218.485.486.485h1.214a.487.487 0 00.485-.485v-1.152a.487.487 0 00-.485-.486h-.115V7.92h.115a.487.487 0 00.485-.486V6.271a.487.487 0 00-.485-.486H20.31a.487.487 0 00-.486.486v.094h-3.008V6.27a.487.487 0 00-.486-.486h-1.214a.487.487 0 00-.486.486v.094H9.395V6.27a.487.487 0 00-.486-.486H7.695a.487.487 0 00-.486.486v.094h-.232a.487.487 0 00-.486.485c0 .267.219.486.486.486h.232v.094c0 .267.219.485.486.485h.128v8.733h-.128v.003zm12.132-9.315v.094c0 .267.219.485.486.485h.128v3.938h-.128a.487.487 0 00-.486.486v.093H16.82v-.093a.487.487 0 00-.485-.486h-.115V7.92h.115a.487.487 0 00.485-.486V7.34h3.008v-.003zm-11.032.583h.114a.487.487 0 00.486-.486V7.34h5.235v.094c0 .267.219.486.486.486h.128v3.938h-.128a.487.487 0 00-.486.485v1.152c0 .267.219.486.486.486h.128v2.671h-.128a.487.487 0 00-.486.486v.094H9.395v-.094a.487.487 0 00-.486-.486h-.114V7.92z"/></g><defs><clipPath id="beclip0_201_1034"><path fill="#fff" d="M0 0h25v25H0z"/></clipPath></defs></svg>