<?xml version="1.0" encoding="utf-8"?><svg width="25" height="25" fill="none" xmlns="http://www.w3.org/2000/svg" viewBox="0 0 25 25"><path d="M24.164 3.254H3.857a.59.59 0 00-.59.591V24.41a.59.59 0 00.59.591h15.721a.591.591 0 00.591-.59v-5.25h3.995a.59.59 0 00.591-.591V3.845a.592.592 0 00-.591-.591zm-.591 14.723h-3.995a.592.592 0 00-.59.591v5.25H4.447V4.436h19.125v13.541zM1.844 4.332a.488.488 0 000-.973H.5a.488.488 0 00-.487.486c0 .268.22.487.487.487h.18v19.59H.5a.488.488 0 00-.487.487c0 .268.22.487.487.487h1.345a.488.488 0 000-.973H1.65V4.331h.195zm2.013-2.013a.488.488 0 00.487-.487v-.195h19.257v.195c0 .268.219.487.486.487a.488.488 0 00.487-.487V.487A.488.488 0 0024.087 0a.488.488 0 00-.486.487v.18H4.344v-.18A.488.488 0 003.857 0a.488.488 0 00-.487.487v1.345a.486.486 0 00.487.487z" fill="#23272B"/><path d="M9.722 16.997V13.27c.365-.459.737-.695 1.099-.695.226 0 .379.062.466.191.07.1.15.323.15.796v3.435h1.24V13.27c.369-.462.74-.695 1.106-.695.222 0 .372.062.459.191.07.1.15.323.15.796v3.435h1.244v-3.47c0-1.679-.935-2.03-1.724-2.03-.25 0-.505.06-.762.174-.216.097-.455.292-.73.59-.268-.507-.758-.764-1.464-.764-.444 0-.858.167-1.237.5v-.385H8.474V17h1.248v-.003zm8-6.97h-1.346c.077-.074.184-.17.338-.3.389-.323.643-.573.778-.761.146-.205.223-.441.223-.709 0-.3-.104-.553-.306-.755-.202-.201-.487-.302-.848-.302-.338 0-.62.097-.831.292a1.15 1.15 0 00-.362.775l-.014.188h.769l.01-.16c.01-.15.056-.257.132-.327a.42.42 0 01.289-.104c.135 0 .233.031.299.097.066.067.097.16.097.285a.66.66 0 01-.14.414c-.107.14-.316.337-.621.58-.334.268-.56.49-.689.682-.139.202-.208.42-.208.647v.173h2.43v-.716z" fill="#23272B"/></svg>