<?xml version="1.0" encoding="utf-8"?><svg width="25" height="22" fill="none" xmlns="http://www.w3.org/2000/svg" viewBox="0 0 25 22"><path d="M25 9.665a2.7 2.7 0 00-2.098-2.632h-.007l-.337-.073V3.898a1.45 1.45 0 00-1.317-1.436 1.258 1.258 0 01-1.148-1.151A1.42 1.42 0 0018.668.007H6.336c-.75 0-1.384.576-1.446 1.307a1.254 1.254 0 01-1.145 1.148 1.446 1.446 0 00-1.314 1.436V6.96c-.107.024-.215.045-.326.07h-.007A2.7 2.7 0 000 9.661v6.807c0 .777.53 1.613 1.39 1.613h1.25L3 20.117l.003.014c0 .003 0 .007.004.01.125.566.638.958 1.248.958.624 0 1.165-.424 1.263-.982v-.004l.36-2.035h13.244l.35 2.032v.007c.108.576.628.978 1.262.978.614 0 1.145-.406 1.263-.967v-.007c0-.004 0-.008.003-.008l.36-2.035h1.27c.857-.028 1.37-.843 1.37-1.613v-6.8zM3.614 3.898a.26.26 0 01.235-.26 2.43 2.43 0 002.22-2.223c.01-.125.132-.23.27-.23h12.332c.135 0 .24.095.25.226a2.431 2.431 0 002.223 2.227c.132.01.239.128.239.26V6.72c-.25-.049-.501-.094-.752-.136a.512.512 0 00.006-.076v-.728c0-.7-.503-1.311-1.196-1.45a12.372 12.372 0 00-4.92.004 1.478 1.478 0 00-1.18 1.446v.093a45.087 45.087 0 00-1.668-.01V5.75c0-.7-.5-1.308-1.19-1.45a12.364 12.364 0 00-4.92 0 1.484 1.484 0 00-1.187 1.45v.738c0 .028 0 .052.004.08-.254.047-.507.095-.76.146V3.898h-.006zm10.903 1.886c0-.145.097-.263.232-.291a11.275 11.275 0 014.456-.003.313.313 0 01.253.294v.614a48.634 48.634 0 00-4.941-.482v-.132zm-8.968.583v-.614c0-.142.1-.267.239-.295a11.212 11.212 0 014.456 0 .3.3 0 01.243.292v.142c-.07.003-.142.003-.212.007a39.072 39.072 0 00-4.185.381c-.177.031-.358.06-.541.087zM2.365 8.181a56.162 56.162 0 013.898-.732 38.53 38.53 0 014.064-.368 48.18 48.18 0 0112.318 1.103c.698.163 1.183.77 1.183 1.48v6.808c0 .212-.115.427-.23.434H1.392c-.08 0-.212-.201-.212-.434v-3.478h13.448a.434.434 0 000-.867H1.183V9.661a1.52 1.52 0 011.182-1.48zm1.998 11.707a.206.206 0 01-.108.035c-.052 0-.09-.024-.097-.035l-.319-1.806h.843l-.32 1.806zm16.482.004a.168.168 0 01-.107.035.215.215 0 01-.107-.028l-.313-1.814h.846l-.319 1.807z" fill="#23272B"/></svg>