<?xml version="1.0" encoding="utf-8"?><svg width="25" height="25" fill="none" xmlns="http://www.w3.org/2000/svg" viewBox="0 0 25 25"><g clip-path="url(#arclip0_201_1045)" fill="#23272B"><path d="M15.392 13.595H4.11a.435.435 0 000 .87h11.283a.435.435 0 000-.87z"/><path d="M23.63 12.229a1.546 1.546 0 00-1.233-.591h-1.363v-8.59A3.066 3.066 0 0017.974 0a3.069 3.069 0 00-3.006 2.5 2.993 2.993 0 00-2.405 2.419.96.96 0 00.212.785c.18.216.445.34.723.34h4.022a.98.98 0 00.736-.34.962.962 0 00.21-.785 2.995 2.995 0 00-2.288-2.395 1.88 1.88 0 011.797-1.342c1.029 0 1.87.84 1.877 1.873v8.59H1.561c-.487 0-.932.216-1.224.59a1.58 1.58 0 00-.27 1.356l1.49 5.785A4.194 4.194 0 003.95 22.17l-.25 1.742a.93.93 0 00.226.747c.187.216.448.341.712.341H5.1c.24 0 .469-.094.653-.268l2.35-2.217h7.765l2.35 2.217a.948.948 0 00.654.268h.462a.98.98 0 00.727-.34.933.933 0 00.215-.748l-.253-1.745a4.185 4.185 0 002.38-2.788l1.502-5.784a1.598 1.598 0 00-.274-1.366zm-6.395-7.37h-3.442c.24-.702.887-1.199 1.641-1.23.024.003.045.003.07.003h.003l.073-.003a1.81 1.81 0 011.655 1.23zM4.999 23.816h-.094l.191-1.335c.17.02.344.031.521.031h.762l-1.38 1.304zm14.064 0h-.094l-1.38-1.304h.748c.18 0 .358-.01.531-.035l.195 1.339zm-.726-2.486H5.617a3.014 3.014 0 01-2.92-2.256l-1.49-5.784a.388.388 0 01.062-.333.347.347 0 01.288-.133h20.836a.38.38 0 01.303.133c.066.086.09.218.062.333l-1.501 5.784a3.014 3.014 0 01-2.92 2.256z"/><path d="M13.63 7.807a.311.311 0 00.313-.313v-.97a.31.31 0 00-.313-.312.311.311 0 00-.313.313v.97a.312.312 0 00.313.312zm-.313 1.606a.31.31 0 00.313.313.312.312 0 00.313-.313v-.96a.31.31 0 00-.313-.312.312.312 0 00-.313.313v.96zm1.52-1.606a.312.312 0 00.312-.313v-.97a.312.312 0 00-.534-.221.31.31 0 00-.092.222v.97a.31.31 0 00.313.312zm-.314 1.606a.313.313 0 10.626 0v-.96a.312.312 0 10-.626 0v.96zm1.509-1.606a.312.312 0 00.313-.313v-.97a.31.31 0 00-.313-.312.312.312 0 00-.313.313v.97a.313.313 0 00.313.312zm-.313 1.606a.313.313 0 10.626 0v-.96a.312.312 0 10-.626 0v.96zm1.52-1.606a.312.312 0 00.312-.313v-.97a.312.312 0 00-.534-.221.312.312 0 00-.092.222v.97a.31.31 0 00.313.312zm-.314 1.606a.313.313 0 10.626 0v-.96a.312.312 0 10-.626 0v.96zm-3.608 1.644a.312.312 0 00.534.222.313.313 0 00.092-.222v-.674a.31.31 0 00-.313-.313.31.31 0 00-.313.313v.674zm1.206 0a.311.311 0 00.313.313.312.312 0 00.313-.313v-.674a.312.312 0 10-.626 0v.674zm1.196 0a.313.313 0 10.626 0v-.674a.31.31 0 00-.313-.313.312.312 0 00-.313.313v.674zm1.206 0a.311.311 0 00.313.313.312.312 0 00.313-.313v-.674a.312.312 0 10-.626 0v.674z"/></g><defs><clipPath id="arclip0_201_1045"><path fill="#fff" d="M0 0h25v25H0z"/></clipPath></defs></svg>