<?xml version="1.0" encoding="utf-8"?><svg width="23" height="23" fill="none" xmlns="http://www.w3.org/2000/svg" viewBox="0 0 23 23"><g clip-path="url(#ayclip0_182_3187)"><path d="M.719 4.055h10.943a3.353 3.353 0 003.27 2.628A3.353 3.353 0 0018.2 4.055h4.08a.719.719 0 100-1.438h-4.08a3.356 3.356 0 00-3.27-2.628 3.355 3.355 0 00-3.269 2.628H.72a.719.719 0 000 1.438zm12.303-.717V3.33a1.913 1.913 0 011.91-1.904c1.047 0 1.904.853 1.909 1.902v.01a1.912 1.912 0 01-1.91 1.907 1.912 1.912 0 01-1.91-1.905v-.002zm9.26 15.607H18.2a3.356 3.356 0 00-3.269-2.628 3.355 3.355 0 00-3.269 2.628H.72a.719.719 0 100 1.438h10.943a3.353 3.353 0 003.27 2.628 3.353 3.353 0 003.269-2.628h4.08a.719.719 0 100-1.438zm-7.35 2.628a1.912 1.912 0 01-1.91-1.904v-.011a1.913 1.913 0 011.91-1.904c1.047 0 1.904.853 1.909 1.902v.011a1.912 1.912 0 01-1.91 1.906zm7.35-10.792H11.337a3.353 3.353 0 00-3.27-2.628A3.353 3.353 0 004.8 10.78H.72a.719.719 0 000 1.438h4.08a3.356 3.356 0 003.27 2.628 3.355 3.355 0 003.269-2.628H22.28a.719.719 0 100-1.438zm-12.304.717v.008a1.913 1.913 0 01-1.91 1.903 1.913 1.913 0 01-1.909-1.902v-.01A1.912 1.912 0 018.07 9.59c1.051 0 1.907.855 1.91 1.905v.003z" fill="#23272B"/></g><defs><clipPath id="ayclip0_182_3187"><path fill="#fff" d="M0 0h23v23H0z"/></clipPath></defs></svg>