<svg width="48" height="48" viewBox="0 0 48 48" fill="none" xmlns="http://www.w3.org/2000/svg">
<circle cx="24" cy="24" r="24" transform="matrix(-1 0 0 1 48 0)" fill="#23272B"/>
<path d="M13.2929 24.7071C12.9024 24.3166 12.9024 23.6834 13.2929 23.2929L19.6569 16.9289C20.0474 16.5384 20.6805 16.5384 21.0711 16.9289C21.4616 17.3195 21.4616 17.9526 21.0711 18.3431L15.4142 24L21.0711 29.6569C21.4616 30.0474 21.4616 30.6805 21.0711 31.0711C20.6805 31.4616 20.0474 31.4616 19.6569 31.0711L13.2929 24.7071ZM33 25L14 25L14 23L33 23L33 25Z" fill="white"/>
</svg>
