<svg width="44" height="44" viewBox="0 0 44 44" fill="none" xmlns="http://www.w3.org/2000/svg"><path d="M22 3.667C11.88 3.667 3.666 11.88 3.666 22S11.88 40.333 22 40.333 40.333 32.12 40.333 22 32.12 3.667 22 3.667zm8.506 12.466c-.274 2.897-1.466 9.937-2.071 13.182-.257 1.375-.77 1.833-1.247 1.888-1.063.092-1.87-.696-2.896-1.375-1.614-1.063-2.53-1.723-4.089-2.75-1.815-1.191-.642-1.851.404-2.915.274-.275 4.968-4.546 5.06-4.931a.368.368 0 00-.092-.33c-.11-.092-.257-.055-.385-.037-.165.037-2.732 1.742-7.737 5.115-.733.495-1.393.752-1.98.733-.66-.018-1.907-.366-2.841-.678-1.155-.367-2.054-.568-1.98-1.21.036-.33.495-.66 1.356-1.008 5.354-2.329 8.91-3.869 10.689-4.602 5.096-2.127 6.141-2.493 6.838-2.493.146 0 .495.036.715.22a.728.728 0 01.256.495c-.018.11.019.44 0 .696z" fill="#23272B"/></svg>