<svg width="38" height="38" viewBox="0 0 38 38" fill="none" xmlns="http://www.w3.org/2000/svg"><path d="M19.002.667C29.127.667 37.335 8.874 37.335 19c0 10.125-8.208 18.333-18.333 18.333A18.25 18.25 0 019.78 34.85L.676 37.333l2.479-9.108A18.247 18.247 0 01.669 19C.669 8.874 8.876.667 19.002.667zm-6.248 9.716l-.367.015c-.237.014-.47.077-.682.183a2.37 2.37 0 00-.539.418c-.22.207-.345.387-.478.561a5.005 5.005 0 00-1.038 3.076c.004.899.238 1.773.605 2.591.75 1.654 1.984 3.404 3.612 5.027.392.39.777.783 1.191 1.148a17.322 17.322 0 007.04 3.75l1.042.16c.339.018.678-.007 1.019-.024a3.647 3.647 0 001.527-.423 8.81 8.81 0 00.702-.403s.08-.052.23-.165c.247-.184.4-.314.605-.529.152-.157.284-.342.385-.553.142-.299.285-.87.344-1.344.044-.363.031-.561.026-.684-.008-.196-.17-.4-.349-.486l-1.067-.478s-1.595-.695-2.57-1.139a.912.912 0 00-.323-.075.883.883 0 00-.692.233c-.01-.004-.133.1-1.458 1.707a.642.642 0 01-.675.238 2.638 2.638 0 01-.35-.12c-.227-.096-.306-.133-.462-.199a11.047 11.047 0 01-2.887-1.839c-.231-.201-.446-.421-.666-.634a11.54 11.54 0 01-1.87-2.325l-.108-.174a1.693 1.693 0 01-.187-.376c-.07-.27.112-.485.112-.485s.445-.488.652-.752c.202-.257.373-.506.483-.684.216-.348.284-.706.17-.983a152.584 152.584 0 00-1.591-3.742c-.108-.245-.43-.421-.72-.456a8.064 8.064 0 00-.298-.03 6.194 6.194 0 00-.739.008l.369-.015.002.002z" fill="#fff"/></svg>