<svg width="36" height="36" viewBox="0 0 36 36" fill="none" xmlns="http://www.w3.org/2000/svg"><circle cx="18" cy="18" r="18" transform="matrix(1 0 0 -1 0 36)" fill="#23272B"/><path d="M25.704 16.026l-6.65 6.67a.701.701 0 01-.257.168.859.859 0 01-.297.05.883.883 0 01-.297-.05.688.688 0 01-.257-.168l-6.67-6.67a.94.94 0 01-.277-.693.97.97 0 01.297-.712.95.95 0 01.693-.297.95.95 0 01.692.297L18.5 20.44l5.819-5.82a.928.928 0 01.683-.276c.27 0 .505.099.702.297a.95.95 0 01.297.692.95.95 0 01-.297.693z" fill="#fff"/></svg>