<svg width="46" height="46" viewBox="0 0 46 46" fill="none" xmlns="http://www.w3.org/2000/svg"><g clip-path="url(#clip0_4_2)"><path d="M46.08 23a.673.673 0 00-.392-.612L33.9 16.968l11.79-5.419c.51-.235.51-.99 0-1.224L23.361.06a.674.674 0 00-.577.007l-2.022.989c-.78.38-.193 1.593.592 1.21l1.735-.847 3.806 1.75-3.841 1.765-4.95-2.268c-.247-.113-.47-.213-.74-.09L.472 10.325c-.51.234-.511.99 0 1.224l11.79 5.42-2.311 1.062c-.789.362-.23 1.589.563 1.224l3.324-1.528c.012-.005.023-.012.034-.018l8.926 4.103a.677.677 0 00.563 0l8.924-4.102L43.794 23 23.08 32.522 2.368 23l4.531-2.083c.788-.362.23-1.59-.563-1.224L.473 22.388c-.51.235-.511.99 0 1.224l11.79 5.42-11.79 5.42c-.51.234-.511.989 0 1.224l22.326 10.263a.68.68 0 00.563 0l3.863-1.776c.788-.362.231-1.59-.563-1.225l-3.581 1.647-20.713-9.521 11.508-5.29 8.923 4.102a.68.68 0 00.563 0l8.964-4.121a.67.67 0 00.176.118l11.291 5.19-12.728 5.852c-.788.362-.23 1.589.563 1.224l14.06-6.463c.511-.235.511-.99 0-1.225L33.9 29.031l11.79-5.419a.673.673 0 00.39-.612zm-17.57-5.037l-3.816-1.754 4.194-1.928 3.801 1.76-4.18 1.922zm-15.034-1.92l3.816-1.754 4.175 1.92-3.816 1.754-4.175-1.92zm-5.68-2.61l3.816-1.754 4.067 1.869-3.816 1.754-4.067-1.87zm4.268-6.942l3.79 1.755-4.242 1.95-3.808-1.751 4.26-1.954zM17.46 8.99l4.052 1.876-4.22 1.94-4.067-1.869L17.46 8.99zm20.904-.549L34.54 10.2l-4.182-1.916 3.83-1.76 4.176 1.918zm-5.44 2.5l-4.035 1.856-4.16-1.927 4.014-1.845 4.181 1.917zm1.374 4.36l-3.802-1.76 4.044-1.859 3.822 1.751-4.064 1.869zm-11.177-5.175L19.07 8.25l3.986-1.832 4.072 1.867-4.006 1.841zm-4.217 3.422l4.215-1.938 4.16 1.927-4.2 1.93-4.175-1.92zm21.073-.857l-3.822-1.751 3.822-1.757 3.816 1.754-3.816 1.754zm-11.469-8.78l4.067 1.87-3.833 1.761-4.072-1.866 3.838-1.765zM17.463 7.506l-3.788-1.754 3.962-1.817 3.803 1.743-3.977 1.828zM6.189 9.186l3.81 1.751-3.816 1.754-3.814-1.753 3.82-1.753zm16.892 11.272l-3.816-1.754 3.816-1.754 3.815 1.754-3.815 1.754z" fill="#fff"/></g><defs><clipPath id="clip0_4_2"><path fill="#fff" d="M0 0h46v46H0z"/></clipPath></defs></svg>