<svg width="11" height="9" viewBox="0 0 11 9" fill="none" xmlns="http://www.w3.org/2000/svg">
<path d="M4.25796 8.35732C4.20777 8.4078 4.1481 8.44785 4.08238 8.47519C4.01666 8.50252 3.94618 8.51659 3.875 8.51659C3.80382 8.51659 3.73334 8.50252 3.66762 8.47519C3.6019 8.44785 3.54223 8.4078 3.49204 8.35732L0.433792 5.29853C0.281472 5.14616 0.195903 4.93954 0.195903 4.72409C0.195903 4.50865 0.281472 4.30202 0.433792 4.14966L0.81675 3.7667C0.969117 3.61438 1.17574 3.52881 1.39119 3.52881C1.60663 3.52881 1.81326 3.61438 1.96563 3.7667L3.875 5.67607L9.03438 0.516697C9.18674 0.364377 9.39337 0.278809 9.60881 0.278809C9.82426 0.278809 10.0309 0.364377 10.1833 0.516697L10.5662 0.899656C10.7185 1.05202 10.8041 1.25865 10.8041 1.47409C10.8041 1.68954 10.7185 1.89616 10.5662 2.04853L4.25796 8.35732Z" fill="white"/>
</svg>
