<svg width="24" height="24" viewBox="0 0 24 24" fill="none" xmlns="http://www.w3.org/2000/svg">
<g clip-path="url(#clip0_303_3223)">
<path d="M4.78091 20C4.62637 20 4.47529 19.9542 4.34679 19.8684C4.21829 19.7825 4.11813 19.6605 4.05899 19.5177C3.99985 19.3749 3.98437 19.2178 4.01453 19.0663C4.04469 18.9147 4.11912 18.7755 4.22841 18.6662L18.6659 4.22873C18.8124 4.0822 19.0112 3.99988 19.2184 3.99988C19.4256 3.99988 19.6244 4.0822 19.7709 4.22873C19.9174 4.37526 19.9998 4.574 19.9998 4.78123C19.9998 4.98846 19.9174 5.1872 19.7709 5.33373L5.33341 19.7712C5.26092 19.8439 5.17479 19.9015 5.07998 19.9407C4.98516 19.98 4.88353 20.0001 4.78091 20Z" fill="#C04E4E"/>
<path d="M19.2184 20C19.1157 20.0001 19.0141 19.98 18.9193 19.9407C18.8245 19.9015 18.7384 19.8439 18.6659 19.7712L4.22836 5.33373C4.08183 5.1872 3.99951 4.98846 3.99951 4.78123C3.99951 4.574 4.08183 4.37526 4.22836 4.22873C4.3749 4.0822 4.57364 3.99988 4.78086 3.99988C4.98809 3.99988 5.18683 4.0822 5.33336 4.22873L19.7709 18.6662C19.8802 18.7755 19.9546 18.9147 19.9847 19.0663C20.0149 19.2178 19.9994 19.3749 19.9403 19.5177C19.8811 19.6605 19.781 19.7825 19.6525 19.8684C19.524 19.9542 19.3729 20 19.2184 20Z" fill="#C04E4E"/>
</g>
<defs>
<clipPath id="clip0_303_3223">
<rect width="16" height="16" fill="white" transform="translate(4 4)"/>
</clipPath>
</defs>
</svg>
