<?xml version="1.0" encoding="utf-8"?><svg viewBox="0 0 362 59" xmlns="http://www.w3.org/2000/svg" xmlns:xlink="http://www.w3.org/1999/xlink"><style>:root>svg{display:none}:root>svg:target{display:block}</style><svg fill="none" viewBox="0 0 362 36" id="about_arrow" xmlns="http://www.w3.org/2000/svg"><path d="M182 1V.5 1zM0 33.62l3.697-4.435 1.992 5.419L0 33.62zm361-.002l-.135.482h-.001l-.004-.002a10.857 10.857 0 00-.075-.021l-.237-.066-.934-.259c-.822-.227-2.035-.56-3.603-.985l.261-.966a769.53 769.53 0 014.545 1.247l.238.066a5.362 5.362 0 01.075.022h.005l.001.001-.136.481zm-14.789-3.458c-2.91-.76-6.193-1.609-9.796-2.523l.246-.969c3.605.915 6.891 1.763 9.803 2.525l-.253.967zm-19.643-4.983c-3.122-.768-6.401-1.564-9.813-2.379l.232-.972c3.415.814 6.696 1.611 9.82 2.38l-.239.97zm-19.683-4.696c-3.211-.742-6.509-1.491-9.877-2.242l.217-.976c3.371.751 6.671 1.501 9.885 2.243l-.225.975zm-19.782-4.407c-3.26-.698-6.566-1.392-9.907-2.076l.201-.98c3.343.685 6.653 1.38 9.915 2.079l-.209.978zm-19.845-4.062a932.575 932.575 0 00-9.952-1.883l.18-.983c3.333.61 6.658 1.24 9.963 1.884l-.191.982zm-19.926-3.65c-3.34-.57-6.674-1.117-9.99-1.636l.154-.988c3.321.52 6.66 1.067 10.005 1.638l-.169.986zm-20.011-3.12c-3.386-.473-6.738-.91-10.044-1.305l.119-.993c3.312.397 6.671.834 10.063 1.307l-.138.99zM207.228 2.85c-3.446-.33-6.82-.605-10.106-.819l.066-.998c3.296.215 6.68.491 10.135.821l-.095.996zm-20.196-1.285c-1.712-.044-3.39-.066-5.032-.066v-1c1.651 0 3.338.022 5.058.066l-.026 1zM182 1.5c-1.726 0-3.448.01-5.165.03l-.012-1C178.544.51 180.27.5 182 .5v1zm-15.471.266a476.89 476.89 0 00-10.296.463l-.056-.999c3.414-.19 6.855-.345 10.318-.463l.034.999zM145.951 2.91c-3.459.265-6.888.564-10.282.892l-.096-.995c3.4-.33 6.835-.629 10.302-.894l.076.997zM125.41 4.899c-3.453.402-6.865.834-10.23 1.291l-.135-.99c3.372-.459 6.789-.891 10.249-1.295l.116.994zM104.987 7.67a573.81 573.81 0 00-10.186 1.668l-.17-.985a576.363 576.363 0 0110.203-1.671l.153.988zm-20.34 3.518c-3.44.657-6.805 1.332-10.09 2.02l-.204-.98c3.29-.688 6.66-1.364 10.106-2.023l.188.983zm-20.191 4.223a603.001 603.001 0 00-10.007 2.362l-.238-.97a603.785 603.785 0 0110.023-2.368l.222.976zm-20.032 4.911c-3.494.921-6.817 1.831-9.955 2.718l-.272-.962c3.144-.889 6.472-1.8 9.972-2.723l.255.967zM24.57 25.938a502.49 502.49 0 00-9.797 3.073l-.31-.95a503.16 503.16 0 019.817-3.08l.29.957zm-19.61 6.4c-.196.068-.385.136-.568.201l-.336-.942.57-.202.333.942zM182 1V0v1zM0 33.62l7.404-8.86 3.972 10.842L0 33.62zm361-.002l-.27.963h-.001-.001l-.003-.001a.415.415 0 00-.015-.005l-.059-.016-.237-.066-.933-.26c-.821-.226-2.034-.56-3.601-.984l.523-1.93a781.751 781.751 0 014.847 1.33l.016.005.004.001h.001l-.271.963zm-14.916-2.974c-2.908-.76-6.191-1.608-9.792-2.522l.492-1.939c3.606.915 6.893 1.764 9.806 2.526l-.506 1.935zm-19.636-4.982c-3.12-.768-6.398-1.563-9.81-2.377l.465-1.946c3.416.815 6.698 1.612 9.823 2.381l-.478 1.942zm-19.676-4.694c-3.21-.741-6.506-1.49-9.873-2.24l.435-1.953c3.372.752 6.674 1.502 9.888 2.244l-.45 1.949zm-19.774-4.405c-3.258-.697-6.563-1.391-9.902-2.075l.401-1.96c3.345.686 6.656 1.38 9.92 2.08l-.419 1.955zm-19.835-4.06a936.384 936.384 0 00-9.947-1.882l.36-1.967c3.335.611 6.662 1.242 9.969 1.885l-.382 1.964zm-19.915-3.648a723.15 723.15 0 00-9.983-1.635l.308-1.976c3.324.52 6.665 1.068 10.012 1.64l-.337 1.97zm-19.996-3.118a519.157 519.157 0 00-10.034-1.304l.237-1.985c3.316.396 6.678.834 10.073 1.308l-.276 1.981zM207.18 3.349a335.676 335.676 0 00-10.09-.818l.13-1.996c3.302.216 6.691.492 10.15.823l-.19 1.99zm-20.16-1.284A198.734 198.734 0 00182 2V0c1.655 0 3.347.022 5.07.066l-.05 2zM182 2c-1.724 0-3.444.01-5.159.03l-.024-2C178.54.01 180.268 0 182 0v2zm-15.454.266c-3.452.117-6.882.272-10.285.462l-.112-1.997c3.418-.19 6.862-.346 10.329-.464l.068 1.999zm-20.557 1.142c-3.456.265-6.881.564-10.271.892l-.193-1.99c3.403-.33 6.842-.63 10.312-.896l.152 1.994zm-20.521 1.987c-3.45.403-6.858.834-10.221 1.29l-.269-1.981c3.375-.458 6.795-.891 10.258-1.295l.232 1.986zm-20.405 2.77c-3.449.533-6.843 1.09-10.176 1.667l-.341-1.97c3.345-.58 6.75-1.139 10.211-1.674l.306 1.977zM84.741 11.68c-3.437.657-6.8 1.331-10.081 2.018l-.41-1.958a597.7 597.7 0 0110.115-2.025l.376 1.965zM64.567 15.9a603.234 603.234 0 00-10 2.36l-.475-1.943a604.796 604.796 0 0110.032-2.368l.443 1.95zm-20.015 4.907c-3.492.92-6.812 1.83-9.947 2.715l-.543-1.924a584.308 584.308 0 019.98-2.725l.51 1.934zm-19.837 5.608a501.433 501.433 0 00-9.787 3.07l-.619-1.901a504.005 504.005 0 019.826-3.083l.58 1.914z" fill="#fff"/></svg><svg fill="none" viewBox="0 0 16 16" id="burger_close" xmlns="http://www.w3.org/2000/svg"><path fill="#000" d="M.93 13.657L13.656.929l1.414 1.414L2.343 15.071z"/><path fill="#000" d="M2.343.929l12.728 12.728-1.414 1.414L.929 2.343z"/></svg><svg fill="none" viewBox="0 0 18 16" id="burger_open" xmlns="http://www.w3.org/2000/svg"><path d="M0 0h18v2H0V0zm0 7h12v2H0V7zm0 7h18v2H0v-2z" fill="#000"/></svg><svg fill="none" viewBox="0 0 36 16" id="detail_arrowleft" xmlns="http://www.w3.org/2000/svg"><path d="M.293 8.707a1 1 0 010-1.414L6.657.929A1 1 0 018.07 2.343L2.414 8l5.657 5.657a1 1 0 11-1.414 1.414L.293 8.707zM36 9H1V7h35v2z" fill="#23272B"/></svg><svg fill="none" viewBox="0 0 36 16" id="detail_arrowright" xmlns="http://www.w3.org/2000/svg"><path d="M35.707 8.707a1 1 0 000-1.414L29.343.929a1 1 0 10-1.414 1.414L33.586 8l-5.657 5.657a1 1 0 001.414 1.414l6.364-6.364zM0 9h35V7H0v2z" fill="#23272B"/></svg><svg fill="none" viewBox="0 0 267 59" id="footer_logo" xmlns="http://www.w3.org/2000/svg"><g clip-path="url(#fclip0_105_1111)"><path d="M36.406 25.006l4.848-2.896.097-.058c.097-.057.194-.12.29-.17l.019-.014.878-.523-1.484-.873-.523-.3c-2.925-1.738-5.868-3.444-8.803-5.162-4.188 2.434-8.37 4.879-12.57 7.288-.112 3.936.058 7.872-.052 11.81.107 5.864-.033 11.732.056 17.595 2.203 1.27 4.387 2.573 6.579 3.862.039-9.727-.01-19.458.024-29.187 1.997-1.108 3.901-2.388 5.929-3.43 1.503.592 2.822 1.584 4.252 2.334l.46-.276z" fill="#A78B73"/><path d="M44.375 25.413c-2.223 1.341-4.473 2.635-6.699 3.968 0 1.327.006 2.64 0 3.96a324.276 324.276 0 00-5.775 3.48c.006 2.594 0 5.19.006 7.784 4.17-2.414 8.301-4.907 12.473-7.31.02-3.96.018-7.921-.005-11.882z" fill="#A78B73"/><path d="M62.34 18.02l-.508-.303c-3.463-2.136-6.997-4.147-10.496-6.23-.01-1.43-.014-2.86-.014-4.29 0-.427 0-.854.005-1.283.429-.491.855-.984 1.278-1.477-3.1 0-6.2-.073-9.296.04.388.422.794.828 1.205 1.232V7.373C40.174 5.066 35.999 2.41 31.7 0a7732.158 7732.158 0 01-30 17.65l-.661.387-1.036.604H2c1.504.042 3.009-.017 4.512 0-.011 8.502.015 16.999-.011 25.497 2.193 1.338 4.423 2.607 6.64 3.905.014-9.765.014-19.528 0-29.29 6.191-3.644 12.403-7.254 18.581-10.922 6.151 3.606 12.3 7.218 18.447 10.838-.008 7.266-.008 14.53 0 21.794-6.06 3.59-12.12 7.178-18.176 10.762 0 2.591-.01 5.182.005 7.775a36014.81 36014.81 0 0124.984-14.643c.004-8.595.004-17.19 0-25.787h6.276l-.918-.55zM90.517 19.72a7.032 7.032 0 01-2.005 4.926 6.786 6.786 0 01-4.838 2.04h-8.117l2.228-5.182h5.889a1.723 1.723 0 001.267-.506 1.786 1.786 0 00.53-1.277 1.812 1.812 0 00-.53-1.276 1.749 1.749 0 00-1.267-.506H74.92v17.502h-5.1V12.755h13.854c1.814.001 3.555.735 4.838 2.041a7.032 7.032 0 012.005 4.925zM110.889 35.435H91.791v-22.68h19.098v5.19H96.883v3.565h10.823v5.182H96.883v3.565h14.006v5.178zM117.254 35.435h-5.099v-22.68h5.099v22.68zm15.596 0h-5.092v-8.749h-9.867l2.228-5.182h7.64v-8.749h5.092l-.001 22.68zM156.406 24.095c0 3.132-1.088 5.805-3.263 8.02-2.174 2.214-4.8 3.32-7.877 3.32s-5.703-1.107-7.879-3.32c-2.175-2.214-3.263-4.887-3.262-8.02 0-3.13 1.087-5.804 3.262-8.018 2.175-2.214 4.801-3.322 7.879-3.322 3.076 0 5.702 1.108 7.877 3.322 2.176 2.214 3.263 4.887 3.263 8.018zm-5.092 0c0-1.013-.245-2.01-.714-2.904a6.114 6.114 0 00-1.975-2.217 5.952 5.952 0 00-5.677-.567 6.063 6.063 0 00-2.361 1.784 6.21 6.21 0 00-1.254 2.707 6.265 6.265 0 00.148 2.99c.29.968.811 1.85 1.516 2.564a6.01 6.01 0 003.096 1.688 5.941 5.941 0 003.495-.352 6.071 6.071 0 002.713-2.27 6.236 6.236 0 001.013-3.423zM178.37 28.474a7.035 7.035 0 01-2.007 4.924 6.786 6.786 0 01-4.838 2.041h-13.846V12.756h13.846c1.815.001 3.555.736 4.838 2.041a7.035 7.035 0 012.007 4.925c0 1.383-.616 2.841-1.847 4.374 1.23 1.535 1.846 2.994 1.847 4.379zm-5.1 0a1.779 1.779 0 00-1.079-1.65 1.714 1.714 0 00-.672-.133h-8.116l2.233-5.187h5.889a1.723 1.723 0 001.268-.506 1.793 1.793 0 00.529-1.277 1.808 1.808 0 00-.529-1.276 1.723 1.723 0 00-1.268-.505h-8.753v12.31h8.753a1.716 1.716 0 001.24-.516 1.775 1.775 0 00.511-1.26h-.006zM191.403 12.755h-4.125l-.496 1.175a964.536 964.536 0 01-4.309 9.961 1087.35 1087.35 0 01-5.073 11.447v.097h5.715l6.222-14.312 3.971 9.128h-7.313l2.228 5.19h13.044l-9.864-22.686zM202.516 35.435v-22.68h5.099v17.502h8.912V12.755h5.08v17.502h1.465v8.294h-5.093v-3.116h-15.463zM224.348 12.755h5.092v12.863l10.504-12.863h5.093v22.68h-5.093V22.572L229.44 35.435h-5.092v-22.68zM254.3 26.686h-1.149a6.788 6.788 0 01-4.839-2.04 7.034 7.034 0 01-2.005-4.925 7.034 7.034 0 012.005-4.925 6.788 6.788 0 014.839-2.04h13.845v22.679h-5.093V17.933h-8.752a1.722 1.722 0 00-1.268.506 1.78 1.78 0 00-.529 1.276 1.807 1.807 0 00.529 1.277 1.743 1.743 0 001.268.506h5.887l2.228 5.182-7.892 8.749h-7.067l7.993-8.743z" fill="#fff"/><path d="M73.78 49.732c-1.137 0-2.08-.383-2.83-1.148a3.877 3.877 0 01-.849-1.303 3.93 3.93 0 01-.273-1.54c0-1.126.374-2.073 1.123-2.84.749-.769 1.692-1.152 2.83-1.15a3.772 3.772 0 011.896.495 3.569 3.569 0 011.356 1.34l-1.08.638a2.26 2.26 0 00-.88-.906 2.528 2.528 0 00-1.292-.336c-.806 0-1.46.26-1.96.781-.5.52-.75 1.18-.75 1.978 0 .8.25 1.46.75 1.98s1.154.78 1.96.78c.454.006.901-.11 1.296-.336.374-.207.679-.523.876-.906l1.08.626a3.53 3.53 0 01-1.346 1.35 3.76 3.76 0 01-1.907.497zM85.726 41.894V43.1h-2.134v6.487h-1.236v-6.484h-2.134v-1.207l5.504-.002zM92.131 41.893a2.436 2.436 0 011.787.724c.461.482.719 1.128.719 1.8 0 .673-.258 1.32-.719 1.801-.233.24-.512.428-.82.554a2.387 2.387 0 01-.967.178h-1.542v2.638h-1.245v-7.695h2.787zm0 3.87a1.181 1.181 0 00.907-.379 1.475 1.475 0 000-1.924 1.204 1.204 0 00-.907-.379h-1.542v2.682h1.542zM104.74 48.571a3.909 3.909 0 01-5.006.536 4.027 4.027 0 01-1.604-2.177 4.1 4.1 0 01.12-2.719c.348-.865.98-1.58 1.788-2.022a3.903 3.903 0 012.644-.406c.901.18 1.713.674 2.296 1.396a4.08 4.08 0 01.902 2.562 3.914 3.914 0 01-.282 1.535 3.853 3.853 0 01-.858 1.295zm-4.688-.857a2.715 2.715 0 001.907.786c.711 0 1.395-.282 1.906-.786.495-.533.772-1.239.772-1.973s-.277-1.44-.772-1.973a2.715 2.715 0 00-1.906-.786c-.712 0-1.396.282-1.907.786a2.9 2.9 0 00-.772 1.973 2.9 2.9 0 00.772 1.973zM114.249 49.59v-5.222l-3.557 5.221h-.973v-7.695h1.243v5.222l3.563-5.222h.973v7.695h-1.249zM124.618 41.894V43.1h-2.127v6.487h-1.243v-6.484h-2.135v-1.207l5.505-.002zM129.478 48.38h3.348v1.207h-4.59v-7.693h4.536V43.1h-3.294v2.002h3.025V46.3h-3.025v2.08zM136.045 49.59v-1.165c.474.065.83-.053 1.067-.353s.356-.875.356-1.726v-4.452h5.066v7.695h-1.243v-6.486h-2.58v3.221a5.941 5.941 0 01-.212 1.705 2.207 2.207 0 01-.6 1.038 2 2 0 01-.83.462 2.91 2.91 0 01-1.024.06zM149.524 44.527c.331-.009.661.052.968.178.307.125.586.314.819.554.461.481.719 1.127.719 1.8 0 .672-.258 1.318-.719 1.8a2.397 2.397 0 01-1.787.724h-2.787v-7.69h1.242v2.634h1.545zm0 3.87a1.18 1.18 0 00.907-.38 1.47 1.47 0 00.356-.961 1.47 1.47 0 00-.356-.962 1.191 1.191 0 00-.907-.38h-1.541v2.688l1.541-.005zM160.292 41.894h1.242v7.695h-1.242v-3.331h-3.24v3.331h-1.243v-7.695h1.243v3.155h3.24v-3.155zM170.671 49.59l-.529-1.55h-3.219l-.529 1.55h-1.351l2.743-7.696h1.491l2.727 7.695h-1.333zm-3.337-2.738h2.398l-1.199-3.474-1.199 3.474zM180.738 41.894v7.695h-1.243v-2.803h-1.199l-1.825 2.803h-1.404l1.922-2.913a2.374 2.374 0 01-1.226-.874 2.335 2.335 0 01-.48-1.434c-.002-.326.06-.648.181-.949.121-.3.3-.574.526-.804a2.382 2.382 0 011.723-.72h3.025zm-3.025 3.76h1.778v-2.575h-1.778a1.091 1.091 0 00-.842.374 1.37 1.37 0 00-.346.912c0 .338.123.663.346.913a1.116 1.116 0 00.842.375zM196.052 49.59h-1.482l-2.981-3.662v3.661h-1.24v-7.695h1.243v3.452l2.873-3.452h1.479l-3.056 3.748 3.164 3.947zM205.886 48.571a3.91 3.91 0 01-5.007.536 4.03 4.03 0 01-1.604-2.177 4.106 4.106 0 01.12-2.719 4.011 4.011 0 011.789-2.022 3.903 3.903 0 012.644-.406 3.95 3.95 0 012.295 1.396c.584.722.902 1.627.902 2.562a3.894 3.894 0 01-1.139 2.83zm-4.688-.857a2.715 2.715 0 001.906.786c.712 0 1.396-.282 1.907-.786.496-.532.773-1.239.773-1.973s-.277-1.44-.773-1.973a2.715 2.715 0 00-1.907-.786c-.711 0-1.395.282-1.906.786a2.898 2.898 0 00-.772 1.973c0 .734.276 1.44.772 1.973zM218.096 41.894v7.695h-1.243v-5.486l-2.3 3.87h-.151l-2.3-3.88v5.496h-1.243v-7.695h1.34l2.278 3.847 2.29-3.847h1.329zM227.87 41.894v7.695h-1.242v-6.486h-3.083v6.486h-1.241v-7.695h5.566zM237.008 49.59l-.53-1.55h-3.219l-.528 1.55h-1.351l2.744-7.696h1.491l2.727 7.695h-1.334zm-3.338-2.738h2.398l-1.199-3.474-1.199 3.474zM246.339 41.894h1.238v7.695h-1.241v-3.331h-3.241v3.331h-1.242v-7.695h1.242v3.155h3.241l.003-3.155zM256.33 49.59v-5.222l-3.565 5.221h-.972v-7.695h1.239v5.222l3.558-5.222h.972v7.695h-1.232zM267 41.893v7.696h-1.242v-2.804h-1.198l-1.827 2.804h-1.4l1.923-2.914a2.373 2.373 0 01-1.226-.874 2.332 2.332 0 01-.474-1.434 2.486 2.486 0 01.707-1.753 2.382 2.382 0 011.723-.72H267zm-3.024 3.76h1.779v-2.575h-1.779a1.094 1.094 0 00-.843.374 1.375 1.375 0 000 1.826 1.11 1.11 0 00.843.375z" fill="#A78B73"/></g><defs><clipPath id="fclip0_105_1111"><path fill="#fff" d="M0 0h267v59H0z"/></clipPath></defs></svg><svg fill="none" viewBox="0 0 267 59" id="header_logo" xmlns="http://www.w3.org/2000/svg"><g clip-path="url(#gclip0_105_467)"><path d="M36.406 25.006l4.848-2.896.097-.058c.098-.057.194-.121.29-.17l.019-.014.878-.524-1.484-.872-.523-.3c-2.925-1.738-5.868-3.444-8.803-5.162-4.188 2.433-8.37 4.879-12.57 7.288-.112 3.936.058 7.872-.052 11.81.107 5.864-.033 11.732.056 17.595 2.203 1.27 4.387 2.573 6.579 3.862.039-9.727-.01-19.458.024-29.187 1.997-1.108 3.901-2.388 5.929-3.43 1.503.592 2.822 1.584 4.252 2.334l.46-.276z" fill="#A78B73"/><path d="M44.375 25.413c-2.223 1.341-4.473 2.635-6.699 3.968 0 1.327.006 2.64 0 3.96a324.281 324.281 0 00-5.775 3.48c.006 2.594 0 5.19.006 7.785 4.17-2.415 8.301-4.908 12.473-7.31.02-3.961.018-7.922-.005-11.883z" fill="#A78B73"/><path d="M62.34 18.02l-.508-.303c-3.463-2.136-6.997-4.147-10.496-6.23-.01-1.43-.014-2.86-.014-4.29 0-.427 0-.854.005-1.283.429-.491.855-.984 1.278-1.477-3.1 0-6.2-.073-9.296.04.388.422.794.828 1.205 1.232V7.373C40.174 5.066 35.999 2.41 31.7 0a7732.158 7732.158 0 01-30 17.65l-.661.387-1.036.604H2c1.504.042 3.009-.017 4.512 0-.011 8.502.015 16.999-.011 25.497 2.193 1.338 4.423 2.607 6.64 3.905.014-9.765.014-19.528 0-29.29 6.191-3.644 12.403-7.254 18.581-10.922 6.151 3.606 12.3 7.218 18.447 10.838-.008 7.266-.008 14.53 0 21.794-6.06 3.59-12.12 7.178-18.176 10.762 0 2.591-.01 5.182.005 7.775a36014.81 36014.81 0 0124.984-14.643c.004-8.595.004-17.19 0-25.787h6.276l-.918-.55zM90.517 19.721a7.032 7.032 0 01-2.005 4.925 6.786 6.786 0 01-4.838 2.04h-8.117l2.228-5.182h5.889a1.723 1.723 0 001.267-.506 1.786 1.786 0 00.53-1.276 1.812 1.812 0 00-.53-1.277 1.749 1.749 0 00-1.267-.506H74.92v17.502h-5.1V12.755h13.854c1.814.001 3.555.735 4.838 2.041a7.032 7.032 0 012.005 4.925zM110.889 35.435H91.791v-22.68h19.098v5.19H96.883v3.565h10.823v5.183H96.883v3.564h14.006v5.178zM117.254 35.435h-5.099v-22.68h5.099v22.68zm15.596 0h-5.092v-8.749h-9.867l2.228-5.182h7.64v-8.749h5.092l-.001 22.68zM156.406 24.095c0 3.132-1.088 5.805-3.263 8.02-2.174 2.214-4.8 3.32-7.877 3.32s-5.703-1.107-7.879-3.32c-2.175-2.214-3.263-4.887-3.262-8.02 0-3.13 1.087-5.803 3.262-8.018 2.175-2.214 4.801-3.322 7.879-3.322 3.076 0 5.702 1.108 7.877 3.322 2.176 2.214 3.263 4.887 3.263 8.018zm-5.092 0c0-1.013-.245-2.01-.714-2.903a6.114 6.114 0 00-1.975-2.218 5.952 5.952 0 00-5.677-.567 6.063 6.063 0 00-2.361 1.784 6.21 6.21 0 00-1.254 2.707 6.265 6.265 0 00.148 2.99c.29.968.811 1.85 1.516 2.564a6.01 6.01 0 003.096 1.688 5.941 5.941 0 003.495-.352 6.071 6.071 0 002.713-2.27 6.236 6.236 0 001.013-3.423zM178.37 28.474a7.035 7.035 0 01-2.007 4.924 6.786 6.786 0 01-4.838 2.042h-13.846V12.756h13.846c1.815 0 3.555.735 4.838 2.04a7.035 7.035 0 012.007 4.925c0 1.383-.616 2.841-1.847 4.374 1.23 1.535 1.846 2.994 1.847 4.38zm-5.1 0a1.78 1.78 0 00-1.079-1.65 1.716 1.716 0 00-.672-.133h-8.116l2.233-5.187h5.889a1.723 1.723 0 001.268-.506 1.793 1.793 0 00.529-1.276 1.808 1.808 0 00-.529-1.277 1.723 1.723 0 00-1.268-.505h-8.753v12.31h8.753a1.716 1.716 0 001.24-.516 1.775 1.775 0 00.511-1.26h-.006zM191.403 12.755h-4.125l-.496 1.175a966.421 966.421 0 01-4.309 9.961 1087.35 1087.35 0 01-5.073 11.447v.097h5.715l6.222-14.312 3.971 9.128h-7.313l2.228 5.19h13.044l-9.864-22.686zM202.516 35.435v-22.68h5.099v17.502h8.912V12.755h5.08v17.502h1.465v8.294h-5.093v-3.116h-15.463zM224.348 12.755h5.092v12.863l10.504-12.862h5.093v22.679h-5.093V22.572L229.44 35.435h-5.092v-22.68zM254.3 26.686h-1.149a6.788 6.788 0 01-4.839-2.04 7.034 7.034 0 01-2.005-4.925 7.034 7.034 0 012.005-4.925 6.788 6.788 0 014.839-2.04h13.845v22.679h-5.093V17.933h-8.752a1.722 1.722 0 00-1.268.506 1.78 1.78 0 00-.529 1.277 1.807 1.807 0 00.529 1.276 1.743 1.743 0 001.268.506h5.887l2.228 5.182-7.892 8.749h-7.067l7.993-8.743z" fill="#23272B"/><path d="M73.78 49.731c-1.137 0-2.08-.382-2.83-1.147a3.876 3.876 0 01-.849-1.304 3.93 3.93 0 01-.273-1.539c0-1.126.374-2.073 1.123-2.841.749-.768 1.692-1.15 2.83-1.15a3.772 3.772 0 011.896.496 3.57 3.57 0 011.356 1.34l-1.08.638a2.26 2.26 0 00-.88-.906 2.53 2.53 0 00-1.292-.336c-.806 0-1.46.26-1.96.781-.5.52-.75 1.18-.75 1.978 0 .8.25 1.46.75 1.98s1.154.78 1.96.78c.454.006.901-.11 1.296-.336.374-.207.679-.523.876-.907l1.08.627a3.53 3.53 0 01-1.346 1.35 3.76 3.76 0 01-1.907.496zM85.726 41.893V43.1h-2.134v6.487h-1.236v-6.484h-2.134v-1.207l5.504-.003zM92.131 41.893a2.435 2.435 0 011.787.724c.461.482.719 1.128.719 1.8 0 .673-.258 1.32-.719 1.801a2.42 2.42 0 01-.82.554 2.387 2.387 0 01-.967.177h-1.542v2.639h-1.245v-7.695h2.787zm0 3.87a1.183 1.183 0 00.907-.379 1.475 1.475 0 000-1.924 1.204 1.204 0 00-.907-.379h-1.542v2.682h1.542zM104.74 48.572a3.91 3.91 0 01-5.006.536 4.027 4.027 0 01-1.604-2.178 4.101 4.101 0 01.12-2.719c.348-.864.98-1.58 1.788-2.022a3.904 3.904 0 012.644-.406c.901.181 1.713.674 2.296 1.396a4.08 4.08 0 01.902 2.562 3.913 3.913 0 01-.282 1.536 3.852 3.852 0 01-.858 1.295zm-4.688-.857a2.715 2.715 0 001.907.785c.711 0 1.395-.281 1.906-.785.495-.534.772-1.24.772-1.974s-.277-1.44-.772-1.973a2.715 2.715 0 00-1.906-.786c-.712 0-1.396.282-1.907.786a2.9 2.9 0 00-.772 1.973 2.9 2.9 0 00.772 1.974zM114.249 49.59v-5.222l-3.557 5.221h-.973v-7.696h1.243v5.223l3.563-5.223h.973v7.696h-1.249zM124.618 41.893V43.1h-2.127v6.487h-1.243v-6.484h-2.135v-1.207l5.505-.003zM129.478 48.38h3.348v1.207h-4.59v-7.694h4.536V43.1h-3.294v2.002h3.025V46.3h-3.025v2.08zM136.045 49.59v-1.166c.474.066.83-.052 1.067-.352s.356-.876.356-1.726v-4.453h5.066v7.696h-1.243v-6.486h-2.58v3.221a5.941 5.941 0 01-.212 1.705 2.207 2.207 0 01-.6 1.037 2 2 0 01-.83.463 2.91 2.91 0 01-1.024.06zM149.524 44.527c.331-.009.661.052.968.177.307.126.586.315.819.554.461.482.719 1.128.719 1.8 0 .673-.258 1.32-.719 1.8a2.435 2.435 0 01-.82.55 2.395 2.395 0 01-.967.175h-2.787v-7.69h1.242v2.634h1.545zm0 3.87a1.18 1.18 0 00.907-.38 1.47 1.47 0 00.356-.961 1.47 1.47 0 00-.356-.962 1.191 1.191 0 00-.907-.38h-1.541v2.688l1.541-.005zM160.292 41.893h1.242v7.696h-1.242v-3.331h-3.24v3.331h-1.243v-7.696h1.243v3.155h3.24v-3.155zM170.671 49.59l-.529-1.55h-3.219l-.529 1.55h-1.351l2.743-7.697h1.491l2.727 7.696h-1.333zm-3.337-2.738h2.398l-1.199-3.474-1.199 3.474zM180.738 41.893v7.696h-1.243v-2.804h-1.199l-1.825 2.804h-1.404l1.922-2.914a2.373 2.373 0 01-1.226-.873 2.335 2.335 0 01-.48-1.434 2.485 2.485 0 01.707-1.754 2.386 2.386 0 011.723-.72h3.025zm-3.025 3.76h1.778V43.08h-1.778a1.091 1.091 0 00-.842.374 1.37 1.37 0 00-.346.912c0 .338.123.663.346.913a1.116 1.116 0 00.842.375zM196.052 49.59h-1.482l-2.981-3.662v3.661h-1.24v-7.696h1.243v3.452l2.873-3.452h1.479l-3.056 3.75 3.164 3.946zM205.886 48.572a3.91 3.91 0 01-5.007.536 4.03 4.03 0 01-1.604-2.178 4.107 4.107 0 01.12-2.719 4.012 4.012 0 011.789-2.022 3.903 3.903 0 012.644-.406 3.95 3.95 0 012.295 1.396c.584.722.902 1.628.902 2.562a3.912 3.912 0 01-.281 1.536 3.85 3.85 0 01-.858 1.295zm-4.688-.857a2.715 2.715 0 001.906.785c.712 0 1.395-.281 1.907-.785.496-.533.773-1.24.773-1.974s-.277-1.44-.773-1.973a2.717 2.717 0 00-1.907-.786c-.711 0-1.395.282-1.906.786a2.898 2.898 0 00-.772 1.973c0 .734.276 1.44.772 1.974zM218.096 41.893v7.696h-1.243v-5.486l-2.3 3.87h-.151l-2.3-3.88v5.496h-1.243v-7.696h1.34l2.278 3.848 2.29-3.848h1.329zM227.87 41.893v7.696h-1.242v-6.486h-3.083v6.486h-1.241v-7.696h5.566zM237.008 49.59l-.53-1.55h-3.219l-.528 1.55h-1.351l2.744-7.697h1.491l2.727 7.696h-1.334zm-3.338-2.738h2.398l-1.199-3.474-1.199 3.474zM246.339 41.893h1.238v7.696h-1.241v-3.331h-3.241v3.331h-1.242v-7.696h1.242v3.155h3.241l.003-3.155zM256.33 49.59v-5.222l-3.565 5.221h-.972v-7.696h1.239v5.223l3.558-5.223h.972v7.696h-1.232zM267 41.893v7.696h-1.242v-2.804h-1.198l-1.827 2.804h-1.4l1.923-2.914a2.373 2.373 0 01-1.226-.873 2.332 2.332 0 01-.474-1.434 2.486 2.486 0 01.707-1.754 2.38 2.38 0 011.723-.72H267zm-3.024 3.76h1.779V43.08h-1.779a1.096 1.096 0 00-.843.374 1.375 1.375 0 000 1.825 1.11 1.11 0 00.843.375z" fill="#A78B73"/></g><defs><clipPath id="gclip0_105_467"><path fill="#fff" d="M0 0h267v59H0z"/></clipPath></defs></svg><svg fill="none" viewBox="0 0 32 32" id="header_star" xmlns="http://www.w3.org/2000/svg"><path d="M15.573.38c.06-.506.794-.506.854 0l.503 4.242A11.937 11.937 0 0027.378 15.07l4.243.503c.505.06.505.794 0 .854l-4.243.503A11.937 11.937 0 0016.93 27.378l-.503 4.243c-.06.505-.794.505-.854 0l-.503-4.243A11.937 11.937 0 004.622 16.93l-4.243-.503c-.505-.06-.505-.794 0-.854l4.243-.503A11.937 11.937 0 0015.07 4.622l.503-4.243z" fill="#23272A"/></svg><svg fill="none" viewBox="0 0 36 36" id="icon_arrowbot" xmlns="http://www.w3.org/2000/svg"><circle cx="18" cy="18" r="18" transform="matrix(1 0 0 -1 0 36)" fill="#23272B"/><path d="M25.704 16.026l-6.65 6.67a.701.701 0 01-.257.168.859.859 0 01-.297.05.883.883 0 01-.297-.05.688.688 0 01-.257-.168l-6.67-6.67a.94.94 0 01-.277-.693c0-.277.099-.514.297-.712a.95.95 0 01.693-.297.95.95 0 01.692.297L18.5 20.44l5.819-5.82a.928.928 0 01.683-.276c.27 0 .505.099.702.297a.95.95 0 01.297.692.95.95 0 01-.297.693z" fill="#fff"/></svg><svg fill="none" viewBox="0 0 48 48" id="icon_arrowleft" xmlns="http://www.w3.org/2000/svg"><circle cx="24" cy="24" r="24" transform="matrix(-1 0 0 1 48 0)" fill="#fff" fill-opacity=".7"/><path d="M13.293 24.707a1 1 0 010-1.414l6.364-6.364a1 1 0 011.414 1.414L15.414 24l5.657 5.657a1 1 0 01-1.414 1.414l-6.364-6.364zM33 25H14v-2h19v2z" fill="#23272A"/></svg><svg fill="none" viewBox="0 0 48 48" id="icon_arrowright" xmlns="http://www.w3.org/2000/svg"><circle cx="24" cy="24" r="24" fill="#fff" fill-opacity=".7"/><path d="M34.707 24.707a1 1 0 000-1.414l-6.364-6.364a1 1 0 00-1.414 1.414L32.586 24l-5.657 5.657a1 1 0 001.414 1.414l6.364-6.364zM15 25h19v-2H15v2z" fill="#23272A"/></svg><svg fill="none" viewBox="0 0 36 36" id="icon_arrowup" xmlns="http://www.w3.org/2000/svg"><circle cx="18" cy="18" r="18" fill="#A78B73"/><path d="M25.704 19.974l-6.65-6.67a.701.701 0 00-.257-.168.859.859 0 00-.297-.05.883.883 0 00-.297.05.688.688 0 00-.257.168l-6.67 6.67a.94.94 0 00-.277.693c0 .277.099.514.297.712a.95.95 0 00.693.297.95.95 0 00.692-.297L18.5 15.56l5.819 5.82a.928.928 0 00.683.276c.27 0 .505-.099.702-.297a.95.95 0 00.297-.692.95.95 0 00-.297-.693z" fill="#fff"/></svg><svg fill="none" viewBox="0 0 25 25" id="icon_bathroom" xmlns="http://www.w3.org/2000/svg"><g clip-path="url(#mclip0_201_1045)" fill="#23272B"><path d="M15.392 13.595H4.11a.435.435 0 000 .87h11.283a.435.435 0 000-.87z"/><path d="M23.63 12.229a1.546 1.546 0 00-1.233-.591h-1.363v-8.59A3.066 3.066 0 0017.974 0a3.069 3.069 0 00-3.006 2.5 2.993 2.993 0 00-2.405 2.419.96.96 0 00.212.785c.18.216.445.34.723.34h4.022a.98.98 0 00.736-.34.962.962 0 00.21-.785 2.995 2.995 0 00-2.288-2.395 1.88 1.88 0 011.797-1.342c1.029 0 1.87.84 1.877 1.873v8.59H1.561c-.487 0-.932.216-1.224.59a1.58 1.58 0 00-.27 1.356l1.49 5.785A4.194 4.194 0 003.95 22.17l-.25 1.742a.93.93 0 00.226.747c.187.216.448.341.712.341H5.1c.24 0 .469-.094.653-.268l2.35-2.217h7.765l2.35 2.217a.948.948 0 00.654.268h.462a.98.98 0 00.727-.34.933.933 0 00.215-.748l-.253-1.745a4.185 4.185 0 002.38-2.788l1.502-5.784a1.598 1.598 0 00-.274-1.366zm-6.395-7.37h-3.442c.24-.702.887-1.199 1.641-1.23.024.003.045.003.07.003h.003l.073-.003a1.81 1.81 0 011.655 1.23zM4.999 23.816h-.094l.191-1.335c.17.02.344.031.521.031h.762l-1.38 1.304zm14.064 0h-.094l-1.38-1.304h.748c.18 0 .358-.01.531-.035l.195 1.339zm-.726-2.486H5.617a3.014 3.014 0 01-2.92-2.256l-1.49-5.784a.388.388 0 01.062-.333.347.347 0 01.288-.133h20.836a.38.38 0 01.303.133c.066.086.09.218.062.333l-1.501 5.784a3.014 3.014 0 01-2.92 2.256z"/><path d="M13.63 7.807a.311.311 0 00.313-.313v-.97a.31.31 0 00-.313-.312.311.311 0 00-.313.313v.97a.312.312 0 00.313.312zm-.313 1.606a.31.31 0 00.313.313.312.312 0 00.313-.313v-.96a.31.31 0 00-.313-.312.312.312 0 00-.313.313v.96zm1.52-1.606a.312.312 0 00.312-.313v-.97a.312.312 0 00-.534-.221.31.31 0 00-.092.222v.97a.31.31 0 00.313.312zm-.314 1.606a.313.313 0 10.626 0v-.96a.312.312 0 10-.626 0v.96zm1.509-1.606a.312.312 0 00.313-.313v-.97a.31.31 0 00-.313-.312.312.312 0 00-.313.313v.97a.313.313 0 00.313.312zm-.313 1.606a.313.313 0 10.626 0v-.96a.312.312 0 10-.626 0v.96zm1.52-1.606a.312.312 0 00.312-.313v-.97a.312.312 0 00-.534-.221.312.312 0 00-.092.222v.97a.31.31 0 00.313.312zm-.314 1.606a.313.313 0 10.626 0v-.96a.312.312 0 10-.626 0v.96zm-3.608 1.644a.312.312 0 00.534.222.313.313 0 00.092-.222v-.674a.31.31 0 00-.313-.313.31.31 0 00-.313.313v.674zm1.206 0a.311.311 0 00.313.313.312.312 0 00.313-.313v-.674a.312.312 0 10-.626 0v.674zm1.196 0a.313.313 0 10.626 0v-.674a.31.31 0 00-.313-.313.312.312 0 00-.313.313v.674zm1.206 0a.311.311 0 00.313.313.312.312 0 00.313-.313v-.674a.312.312 0 10-.626 0v.674z"/></g><defs><clipPath id="mclip0_201_1045"><path fill="#fff" d="M0 0h25v25H0z"/></clipPath></defs></svg><svg fill="none" viewBox="0 0 25 22" id="icon_bedroom" xmlns="http://www.w3.org/2000/svg"><path d="M25 9.665a2.7 2.7 0 00-2.098-2.632h-.007l-.337-.073V3.898a1.45 1.45 0 00-1.317-1.436 1.258 1.258 0 01-1.148-1.151A1.42 1.42 0 0018.668.007H6.336c-.75 0-1.384.576-1.446 1.307a1.254 1.254 0 01-1.145 1.148 1.446 1.446 0 00-1.314 1.436V6.96c-.107.024-.215.045-.326.07h-.007A2.7 2.7 0 000 9.661v6.807c0 .777.53 1.613 1.39 1.613h1.25L3 20.117l.003.014c0 .003 0 .007.004.01.125.566.638.958 1.248.958.624 0 1.165-.424 1.263-.982v-.004l.36-2.035h13.244l.35 2.032v.007c.108.576.628.978 1.262.978.614 0 1.145-.406 1.263-.967v-.007c0-.004 0-.008.003-.008l.36-2.035h1.27c.857-.028 1.37-.843 1.37-1.613v-6.8zM3.614 3.898a.26.26 0 01.235-.26 2.43 2.43 0 002.22-2.223c.01-.125.132-.23.27-.23h12.332c.135 0 .24.095.25.226a2.431 2.431 0 002.223 2.227c.132.01.239.128.239.26V6.72c-.25-.049-.501-.094-.752-.136a.512.512 0 00.006-.076v-.728c0-.7-.503-1.311-1.196-1.45a12.372 12.372 0 00-4.92.004 1.478 1.478 0 00-1.18 1.446v.093a45.087 45.087 0 00-1.668-.01V5.75c0-.7-.5-1.308-1.19-1.45a12.364 12.364 0 00-4.92 0 1.484 1.484 0 00-1.187 1.45v.738c0 .028 0 .052.004.08-.254.047-.507.095-.76.146V3.898h-.006zm10.903 1.886c0-.145.097-.263.232-.291a11.275 11.275 0 014.456-.003.313.313 0 01.253.294v.614a48.634 48.634 0 00-4.941-.482v-.132zm-8.968.583v-.614c0-.142.1-.267.239-.295a11.212 11.212 0 014.456 0 .3.3 0 01.243.292v.142c-.07.003-.142.003-.212.007a39.072 39.072 0 00-4.185.381c-.177.031-.358.06-.541.087zM2.365 8.181a56.162 56.162 0 013.898-.732 38.53 38.53 0 014.064-.368 48.18 48.18 0 0112.318 1.103c.698.163 1.183.77 1.183 1.48v6.808c0 .212-.115.427-.23.434H1.392c-.08 0-.212-.201-.212-.434v-3.478h13.448a.434.434 0 000-.867H1.183V9.661a1.52 1.52 0 011.182-1.48zm1.998 11.707a.206.206 0 01-.108.035c-.052 0-.09-.024-.097-.035l-.319-1.806h.843l-.32 1.806zm16.482.004a.168.168 0 01-.107.035.215.215 0 01-.107-.028l-.313-1.814h.846l-.319 1.807z" fill="#23272B"/></svg><svg fill="none" viewBox="0 0 24 24" id="icon_checkmark" xmlns="http://www.w3.org/2000/svg"><path d="M18.72 7l-8.4 10-5.04-4.546" stroke="#49B476" stroke-width="2" stroke-linecap="round" stroke-linejoin="round"/></svg><svg fill="none" viewBox="0 0 46 46" id="icon_choice" xmlns="http://www.w3.org/2000/svg"><g clip-path="url(#pclip0_4_2)"><path d="M46.08 23a.673.673 0 00-.392-.612L33.9 16.968l11.79-5.419c.51-.235.51-.99 0-1.224L23.361.06a.674.674 0 00-.577.007l-2.022.989c-.78.38-.193 1.593.592 1.21l1.735-.847 3.806 1.75-3.841 1.765-4.95-2.268c-.247-.113-.47-.213-.74-.09L.472 10.325c-.51.234-.511.99 0 1.224l11.79 5.42-2.311 1.062c-.789.362-.23 1.589.563 1.224l3.324-1.528c.012-.005.023-.012.034-.018l8.926 4.103a.677.677 0 00.563 0l8.924-4.102L43.794 23 23.08 32.522 2.368 23l4.531-2.083c.788-.362.23-1.59-.563-1.224L.473 22.388c-.51.235-.511.99 0 1.224l11.79 5.42-11.79 5.42c-.51.234-.511.989 0 1.224l22.326 10.263a.68.68 0 00.563 0l3.863-1.776c.788-.362.231-1.59-.563-1.225l-3.581 1.647-20.713-9.521 11.508-5.29 8.923 4.102a.68.68 0 00.563 0l8.964-4.121a.67.67 0 00.176.118l11.291 5.19-12.728 5.852c-.788.362-.23 1.589.563 1.224l14.06-6.463c.511-.235.511-.99 0-1.225L33.9 29.031l11.79-5.419A.673.673 0 0046.08 23zm-17.57-5.037l-3.816-1.754 4.194-1.928 3.801 1.76-4.18 1.922zm-15.034-1.92l3.816-1.754 4.175 1.92-3.816 1.754-4.175-1.92zm-5.68-2.61l3.816-1.754 4.067 1.869-3.816 1.754-4.067-1.87zm4.268-6.942l3.79 1.755-4.242 1.95-3.808-1.751 4.26-1.954zM17.46 8.99l4.052 1.876-4.22 1.94-4.067-1.869L17.46 8.99zm20.904-.549L34.54 10.2l-4.182-1.916 3.83-1.76 4.176 1.918zm-5.44 2.5l-4.035 1.856-4.16-1.927 4.014-1.845 4.181 1.917zm1.374 4.36l-3.802-1.76 4.044-1.859 3.822 1.751-4.064 1.869zm-11.177-5.175L19.07 8.25l3.986-1.832 4.072 1.867-4.006 1.841zm-4.217 3.422l4.215-1.938 4.16 1.927-4.2 1.93-4.175-1.92zm21.073-.857l-3.822-1.751 3.822-1.757 3.816 1.754-3.816 1.754zm-11.469-8.78l4.067 1.87-3.833 1.761-4.072-1.866 3.838-1.765zM17.463 7.506l-3.788-1.754 3.962-1.817 3.803 1.743-3.977 1.828zM6.189 9.186l3.81 1.751-3.816 1.754-3.814-1.753 3.82-1.753zm16.892 11.272l-3.816-1.754 3.816-1.754 3.815 1.754-3.815 1.754z" fill="#fff"/></g><defs><clipPath id="pclip0_4_2"><path fill="#fff" d="M0 0h46v46H0z"/></clipPath></defs></svg><svg fill="none" viewBox="0 0 25 25" id="icon_metr" xmlns="http://www.w3.org/2000/svg"><path d="M24.164 3.254H3.857a.59.59 0 00-.59.591V24.41a.59.59 0 00.59.591h15.721a.591.591 0 00.591-.59v-5.25h3.995a.59.59 0 00.591-.591V3.845a.592.592 0 00-.591-.591zm-.591 14.723h-3.995a.592.592 0 00-.59.591v5.25H4.447V4.436h19.125v13.541zM1.844 4.332a.488.488 0 000-.973H.5a.488.488 0 00-.487.486c0 .268.22.487.487.487h.18v19.59H.5a.488.488 0 00-.487.487c0 .268.22.487.487.487h1.345a.488.488 0 000-.973H1.65V4.331h.195zm2.013-2.013a.488.488 0 00.487-.487v-.195h19.257v.195c0 .268.219.487.486.487a.488.488 0 00.487-.487V.487A.488.488 0 0024.087 0a.488.488 0 00-.486.487v.18H4.344v-.18A.488.488 0 003.857 0a.488.488 0 00-.487.487v1.345a.486.486 0 00.487.487z" fill="#23272B"/><path d="M9.722 16.997V13.27c.365-.459.737-.695 1.099-.695.226 0 .379.062.466.191.07.1.15.323.15.796v3.435h1.24V13.27c.369-.462.74-.695 1.106-.695.222 0 .372.062.459.191.07.1.15.323.15.796v3.435h1.244v-3.47c0-1.679-.935-2.03-1.724-2.03-.25 0-.505.06-.762.174-.216.097-.455.292-.73.59-.268-.507-.758-.764-1.464-.764-.444 0-.858.167-1.237.5v-.385H8.474V17h1.248v-.003zm8-6.97h-1.346c.077-.074.184-.17.338-.3.389-.323.643-.573.778-.761.146-.205.223-.441.223-.709 0-.3-.104-.553-.306-.755-.202-.201-.487-.302-.848-.302-.338 0-.62.097-.831.292a1.15 1.15 0 00-.362.775l-.014.188h.769l.01-.16c.01-.15.056-.257.132-.327a.42.42 0 01.289-.104c.135 0 .233.031.299.097.066.067.097.16.097.285a.66.66 0 01-.14.414c-.107.14-.316.337-.621.58-.334.268-.56.49-.689.682-.139.202-.208.42-.208.647v.173h2.43v-.716z" fill="#23272B"/></svg><svg fill="none" viewBox="0 0 25 25" id="icon_metr2" xmlns="http://www.w3.org/2000/svg"><g clip-path="url(#rclip0_55_693)" fill="#fff"><path d="M24.164 3.254H3.857a.59.59 0 00-.59.591V24.41a.59.59 0 00.59.591h15.721a.591.591 0 00.591-.59v-5.25h3.995a.59.59 0 00.591-.591V3.845a.592.592 0 00-.591-.591zm-.591 14.723h-3.995a.592.592 0 00-.59.591v5.25H4.447V4.436h19.125v13.541zM1.844 4.332a.488.488 0 000-.973H.5a.488.488 0 00-.487.486c0 .268.22.487.487.487h.18v19.59H.5a.488.488 0 00-.487.487c0 .268.22.487.487.487h1.345a.488.488 0 000-.973H1.65V4.331h.195zm2.013-2.013a.488.488 0 00.487-.487v-.195h19.257v.195c0 .268.219.487.486.487a.488.488 0 00.487-.487V.487A.488.488 0 0024.087 0a.488.488 0 00-.486.487v.18H4.344v-.18A.488.488 0 003.857 0a.488.488 0 00-.487.487v1.345a.486.486 0 00.487.487z"/><path d="M9.722 16.997V13.27c.365-.459.737-.695 1.099-.695.226 0 .379.063.466.191.07.101.15.324.15.796v3.435h1.24V13.27c.369-.462.74-.695 1.106-.695.222 0 .372.063.459.191.07.101.15.324.15.796v3.435h1.244v-3.47c0-1.679-.935-2.03-1.724-2.03-.25 0-.505.06-.762.174-.216.098-.455.292-.73.591-.268-.508-.758-.765-1.464-.765-.444 0-.858.167-1.237.5v-.385H8.474v5.389h1.248v-.004zm8-6.97h-1.346c.077-.073.184-.17.338-.3.389-.323.643-.573.778-.76.146-.206.223-.442.223-.71 0-.299-.104-.553-.306-.754-.202-.202-.487-.303-.848-.303-.338 0-.62.098-.831.292a1.15 1.15 0 00-.362.776l-.014.187h.769l.01-.16c.01-.15.056-.257.132-.326a.42.42 0 01.289-.105c.135 0 .233.031.299.097.066.067.097.16.097.286a.66.66 0 01-.14.413c-.107.14-.316.337-.621.58-.334.269-.56.491-.689.682-.139.202-.208.421-.208.647v.174h2.43v-.716z"/></g><defs><clipPath id="rclip0_55_693"><path fill="#fff" d="M0 0h25v25H0z"/></clipPath></defs></svg><svg fill="none" viewBox="0 0 11 9" id="icon_okey" xmlns="http://www.w3.org/2000/svg"><path d="M4.258 8.357a.54.54 0 01-.766 0L.434 5.3a.813.813 0 010-1.15l.383-.382a.813.813 0 011.149 0l1.909 1.91 5.16-5.16a.812.812 0 011.148 0l.383.383a.813.813 0 010 1.149L4.258 8.357z" fill="#fff"/></svg><svg fill="none" viewBox="0 0 25 25" id="icon_plan" xmlns="http://www.w3.org/2000/svg"><g clip-path="url(#tclip0_201_1034)" fill="#23272B"><path d="M25 3.672c0-.655-.534-1.19-1.19-1.19H5.946A3.01 3.01 0 003.001.064 3.008 3.008 0 000 3.072v17.33a3.002 3.002 0 002.998 2.993h20.809c.655 0 1.19-.534 1.19-1.19V3.672H25zM3.005 1.244c1.006 0 1.82.819 1.82 1.828v14.936a2.995 2.995 0 00-3.643 0V3.072a1.822 1.822 0 011.823-1.828zM1.179 20.39c0-1.006.82-1.821 1.822-1.821 1.006 0 1.821.818 1.821 1.821v.007a.59.59 0 101.18 0V3.662h17.8c.012 0 .012.004.012.01v18.53c0 .01-.004.01-.011.01H2.998a1.819 1.819 0 01-1.819-1.821z"/><path d="M7.695 16.651a.487.487 0 00-.486.486v.094h-.232a.487.487 0 000 .971h.232v.094c0 .267.219.485.486.485H8.91a.487.487 0 00.486-.485v-.094h5.235v.094c0 .267.219.485.486.485h1.214a.487.487 0 00.486-.485v-1.162a.487.487 0 00-.486-.486h-.114v-2.672h.114a.487.487 0 00.486-.485v-.083h3.008v.083c0 .267.218.485.486.485h1.214a.487.487 0 00.485-.485v-1.152a.487.487 0 00-.485-.486h-.115V7.92h.115a.487.487 0 00.485-.486V6.271a.487.487 0 00-.485-.486H20.31a.487.487 0 00-.486.486v.094h-3.008V6.27a.487.487 0 00-.486-.486h-1.214a.487.487 0 00-.486.486v.094H9.395V6.27a.487.487 0 00-.486-.486H7.695a.487.487 0 00-.486.486v.094h-.232a.487.487 0 00-.486.485c0 .267.219.486.486.486h.232v.094c0 .267.219.485.486.485h.128v8.733h-.128v.003zm12.132-9.315v.094c0 .267.219.485.486.485h.128v3.938h-.128a.487.487 0 00-.486.486v.093H16.82v-.093a.487.487 0 00-.485-.486h-.115V7.92h.115a.487.487 0 00.485-.486V7.34h3.008v-.003zm-11.032.583h.114a.487.487 0 00.486-.486V7.34h5.235v.094c0 .267.219.486.486.486h.128v3.938h-.128a.487.487 0 00-.486.485v1.152c0 .267.219.486.486.486h.128v2.671h-.128a.487.487 0 00-.486.486v.094H9.395v-.094a.487.487 0 00-.486-.486h-.114V7.92z"/></g><defs><clipPath id="tclip0_201_1034"><path fill="#fff" d="M0 0h25v25H0z"/></clipPath></defs></svg><svg fill="none" viewBox="0 0 17 17" id="icon_redcross" xmlns="http://www.w3.org/2000/svg"><g clip-path="url(#uclip0_39_3255)" fill="#C04E4E"><path d="M.83 17a.83.83 0 01-.587-1.417L15.583.243a.83.83 0 011.174 1.174l-15.34 15.34A.827.827 0 01.83 17z"/><path d="M16.17 17a.829.829 0 01-.587-.243L.243 1.417A.83.83 0 011.417.243l15.34 15.34A.83.83 0 0116.17 17z"/></g><defs><clipPath id="uclip0_39_3255"><path fill="#fff" d="M0 0h17v17H0z"/></clipPath></defs></svg><svg fill="none" viewBox="0 0 38 38" id="icon_telegram" xmlns="http://www.w3.org/2000/svg"><path d="M19 .667C8.88.667.667 8.88.667 19S8.88 37.333 19 37.333 37.333 29.12 37.333 19 29.12.667 19 .667zm8.507 12.466c-.275 2.897-1.467 9.937-2.072 13.182-.257 1.375-.77 1.833-1.247 1.888-1.063.092-1.87-.697-2.896-1.375-1.614-1.063-2.53-1.723-4.089-2.75-1.815-1.191-.641-1.851.404-2.915.275-.275 4.968-4.547 5.06-4.931a.367.367 0 00-.092-.33c-.11-.092-.257-.055-.385-.037-.165.037-2.732 1.742-7.737 5.115-.733.495-1.393.752-1.98.733-.66-.018-1.906-.367-2.841-.678-1.155-.367-2.054-.569-1.98-1.21.036-.33.495-.66 1.356-1.008 5.354-2.329 8.91-3.869 10.689-4.602 5.096-2.127 6.141-2.493 6.838-2.493.147 0 .495.036.715.22a.729.729 0 01.257.495c-.019.11.018.44 0 .696z" fill="#fff"/></svg><svg fill="none" viewBox="0 0 38 38" id="icon_whatsapp" xmlns="http://www.w3.org/2000/svg"><path d="M19.002.667C29.127.667 37.335 8.874 37.335 19c0 10.125-8.208 18.333-18.333 18.333A18.25 18.25 0 019.78 34.85L.676 37.333l2.479-9.108A18.247 18.247 0 01.669 19C.669 8.874 8.876.667 19.002.667zm-6.248 9.716l-.367.015c-.237.014-.47.077-.682.183a2.37 2.37 0 00-.539.418c-.22.207-.345.387-.478.561a5.005 5.005 0 00-1.038 3.076c.004.899.238 1.773.605 2.591.75 1.654 1.984 3.404 3.612 5.027.392.39.777.783 1.191 1.148a17.322 17.322 0 007.04 3.75l1.042.16c.339.018.678-.007 1.019-.024a3.647 3.647 0 001.527-.423 8.81 8.81 0 00.702-.403s.08-.052.23-.165c.247-.184.4-.314.605-.529.152-.157.284-.342.385-.553.142-.299.285-.87.344-1.344.044-.363.031-.561.026-.684-.008-.196-.17-.4-.349-.486l-1.067-.478s-1.595-.695-2.57-1.139a.912.912 0 00-.323-.075.883.883 0 00-.692.233c-.01-.004-.133.1-1.458 1.707a.642.642 0 01-.675.238 2.638 2.638 0 01-.35-.12c-.227-.096-.306-.133-.462-.199a11.047 11.047 0 01-2.887-1.839c-.231-.201-.446-.421-.666-.634a11.54 11.54 0 01-1.87-2.325l-.108-.174a1.693 1.693 0 01-.187-.376c-.07-.27.112-.485.112-.485s.445-.488.652-.752c.202-.257.373-.506.483-.684.216-.348.284-.706.17-.983a152.584 152.584 0 00-1.591-3.742c-.108-.245-.43-.421-.72-.456a8.064 8.064 0 00-.298-.03 6.194 6.194 0 00-.739.008l.369-.015.002.002z" fill="#fff"/></svg></svg>